<svg width="280" height="395" viewBox="0 0 280 395" fill="none" xmlns="http://www.w3.org/2000/svg">
<g clip-path="url(#clip0_5_166)">
<rect width="280" height="395" rx="20" fill="white"/>
<rect x="15" y="15" width="250" height="365" rx="10" stroke="url(#paint0_linear_5_166)" stroke-width="10"/>
<path d="M105.856 166.281L110.856 170.344L81.4814 229.875L76.7939 225.344L105.856 166.281ZM93.8252 239.094C87.9398 239.094 82.9268 237.492 78.7861 234.289C74.6455 231.06 71.4814 226.385 69.2939 220.266C67.1064 214.12 66.0127 206.698 66.0127 198C66.0127 189.354 67.1064 181.971 69.2939 175.852C71.5075 169.706 74.6846 165.018 78.8252 161.789C82.9919 158.534 87.9919 156.906 93.8252 156.906C99.6585 156.906 104.646 158.534 108.786 161.789C112.953 165.018 116.13 169.706 118.317 175.852C120.531 181.971 121.638 189.354 121.638 198C121.638 206.698 120.544 214.12 118.356 220.266C116.169 226.385 113.005 231.06 108.864 234.289C104.724 237.492 99.7106 239.094 93.8252 239.094ZM93.8252 230.5C99.6585 230.5 104.19 227.687 107.419 222.062C110.648 216.437 112.263 208.417 112.263 198C112.263 191.073 111.521 185.174 110.036 180.305C108.578 175.435 106.468 171.724 103.708 169.172C100.974 166.62 97.6794 165.344 93.8252 165.344C88.0439 165.344 83.5257 168.195 80.2705 173.898C77.0153 179.576 75.3877 187.609 75.3877 198C75.3877 204.927 76.1169 210.812 77.5752 215.656C79.0335 220.5 81.1299 224.185 83.8643 226.711C86.6247 229.237 89.945 230.5 93.8252 230.5ZM147.595 227.062L146.97 231.281C146.527 234.25 145.85 237.427 144.938 240.813C144.053 244.198 143.129 247.388 142.165 250.383C141.201 253.378 140.407 255.76 139.782 257.531H132.751C133.09 255.865 133.532 253.664 134.079 250.93C134.626 248.195 135.173 245.135 135.72 241.75C136.293 238.391 136.761 234.953 137.126 231.437L137.595 227.062H147.595ZM187.907 239.094C183.324 239.094 179.196 238.182 175.524 236.359C171.853 234.536 168.91 232.036 166.696 228.859C164.483 225.682 163.272 222.062 163.063 218H172.438C172.803 221.62 174.444 224.615 177.36 226.984C180.303 229.328 183.819 230.5 187.907 230.5C191.188 230.5 194.105 229.732 196.657 228.195C199.235 226.659 201.254 224.549 202.712 221.867C204.196 219.159 204.938 216.099 204.938 212.687C204.938 209.198 204.17 206.086 202.634 203.352C201.123 200.591 199.04 198.417 196.384 196.828C193.728 195.24 190.694 194.432 187.282 194.406C184.834 194.38 182.321 194.758 179.743 195.539C177.165 196.294 175.043 197.271 173.376 198.469L164.313 197.375L169.157 158H210.72V166.594H177.282L174.47 190.187H174.938C176.579 188.885 178.636 187.805 181.11 186.945C183.584 186.086 186.162 185.656 188.845 185.656C193.741 185.656 198.103 186.828 201.931 189.172C205.785 191.49 208.806 194.667 210.993 198.703C213.207 202.74 214.313 207.349 214.313 212.531C214.313 217.635 213.168 222.193 210.876 226.203C208.61 230.187 205.485 233.339 201.501 235.656C197.517 237.948 192.985 239.094 187.907 239.094Z" fill="#303644"/>
<path d="M45.25 39.7045L47.4318 41.4773L34.6136 67.4545L32.5682 65.4773L45.25 39.7045ZM40 71.4773C37.4318 71.4773 35.2443 70.7784 33.4375 69.3807C31.6307 67.9716 30.25 65.9318 29.2955 63.2614C28.3409 60.5795 27.8636 57.3409 27.8636 53.5455C27.8636 49.7727 28.3409 46.5511 29.2955 43.8807C30.2614 41.1989 31.6477 39.1534 33.4545 37.7443C35.2727 36.3239 37.4545 35.6136 40 35.6136C42.5455 35.6136 44.7216 36.3239 46.5284 37.7443C48.3466 39.1534 49.733 41.1989 50.6875 43.8807C51.6534 46.5511 52.1364 49.7727 52.1364 53.5455C52.1364 57.3409 51.6591 60.5795 50.7045 63.2614C49.75 65.9318 48.3693 67.9716 46.5625 69.3807C44.7557 70.7784 42.5682 71.4773 40 71.4773ZM40 67.7273C42.5455 67.7273 44.5227 66.5 45.9318 64.0455C47.3409 61.5909 48.0455 58.0909 48.0455 53.5455C48.0455 50.5227 47.7216 47.9489 47.0739 45.8239C46.4375 43.6989 45.517 42.0795 44.3125 40.9659C43.1193 39.8523 41.6818 39.2955 40 39.2955C37.4773 39.2955 35.5057 40.5398 34.0852 43.0284C32.6648 45.5057 31.9545 49.0114 31.9545 53.5455C31.9545 56.5682 32.2727 59.1364 32.9091 61.25C33.5455 63.3636 34.4602 64.9716 35.6534 66.0739C36.858 67.1761 38.3068 67.7273 40 67.7273ZM63.4631 66.2273L63.1903 68.0682C62.9972 69.3636 62.7017 70.75 62.304 72.2273C61.9176 73.7045 61.5142 75.0966 61.0938 76.4034C60.6733 77.7102 60.3267 78.75 60.054 79.5227H56.9858C57.1335 78.7955 57.3267 77.8352 57.5653 76.642C57.804 75.4489 58.0426 74.1136 58.2812 72.6364C58.5312 71.1705 58.7358 69.6705 58.8949 68.1364L59.0994 66.2273H63.4631ZM81.054 71.4773C79.054 71.4773 77.2528 71.0795 75.6506 70.2841C74.0483 69.4886 72.7642 68.3977 71.7983 67.0114C70.8324 65.625 70.304 64.0455 70.2131 62.2727H74.304C74.4631 63.8523 75.179 65.1591 76.4517 66.1932C77.7358 67.2159 79.2699 67.7273 81.054 67.7273C82.4858 67.7273 83.7585 67.392 84.8722 66.7216C85.9972 66.0511 86.8778 65.1307 87.5142 63.9602C88.1619 62.7784 88.4858 61.4432 88.4858 59.9545C88.4858 58.4318 88.1506 57.0739 87.4801 55.8807C86.821 54.6761 85.9119 53.7273 84.7528 53.0341C83.5938 52.3409 82.2699 51.9886 80.7812 51.9773C79.7131 51.9659 78.6165 52.1307 77.4915 52.4716C76.3665 52.8011 75.4403 53.2273 74.7131 53.75L70.7585 53.2727L72.8722 36.0909H91.0085V39.8409H76.4176L75.1903 50.1364H75.3949C76.1108 49.5682 77.0085 49.0966 78.0881 48.7216C79.1676 48.3466 80.2926 48.1591 81.4631 48.1591C83.5994 48.1591 85.5028 48.6705 87.1733 49.6932C88.8551 50.7045 90.1733 52.0909 91.1278 53.8523C92.0938 55.6136 92.5767 57.625 92.5767 59.8864C92.5767 62.1136 92.0767 64.1023 91.0767 65.8523C90.0881 67.5909 88.7244 68.9659 86.9858 69.9773C85.2472 70.9773 83.2699 71.4773 81.054 71.4773Z" fill="#303644"/>
<path d="M203.516 324.705L205.697 326.477L192.879 352.455L190.834 350.477L203.516 324.705ZM198.266 356.477C195.697 356.477 193.51 355.778 191.703 354.381C189.896 352.972 188.516 350.932 187.561 348.261C186.607 345.58 186.129 342.341 186.129 338.545C186.129 334.773 186.607 331.551 187.561 328.881C188.527 326.199 189.913 324.153 191.72 322.744C193.538 321.324 195.72 320.614 198.266 320.614C200.811 320.614 202.987 321.324 204.794 322.744C206.612 324.153 207.999 326.199 208.953 328.881C209.919 331.551 210.402 334.773 210.402 338.545C210.402 342.341 209.925 345.58 208.97 348.261C208.016 350.932 206.635 352.972 204.828 354.381C203.021 355.778 200.834 356.477 198.266 356.477ZM198.266 352.727C200.811 352.727 202.788 351.5 204.197 349.045C205.607 346.591 206.311 343.091 206.311 338.545C206.311 335.523 205.987 332.949 205.339 330.824C204.703 328.699 203.783 327.08 202.578 325.966C201.385 324.852 199.947 324.295 198.266 324.295C195.743 324.295 193.771 325.54 192.351 328.028C190.93 330.506 190.22 334.011 190.22 338.545C190.22 341.568 190.538 344.136 191.175 346.25C191.811 348.364 192.726 349.972 193.919 351.074C195.124 352.176 196.572 352.727 198.266 352.727ZM221.729 351.227L221.456 353.068C221.263 354.364 220.967 355.75 220.57 357.227C220.183 358.705 219.78 360.097 219.359 361.403C218.939 362.71 218.592 363.75 218.32 364.523H215.251C215.399 363.795 215.592 362.835 215.831 361.642C216.07 360.449 216.308 359.114 216.547 357.636C216.797 356.17 217.001 354.67 217.161 353.136L217.365 351.227H221.729ZM239.32 356.477C237.32 356.477 235.518 356.08 233.916 355.284C232.314 354.489 231.03 353.398 230.064 352.011C229.098 350.625 228.57 349.045 228.479 347.273H232.57C232.729 348.852 233.445 350.159 234.717 351.193C236.001 352.216 237.536 352.727 239.32 352.727C240.751 352.727 242.024 352.392 243.138 351.722C244.263 351.051 245.143 350.131 245.78 348.96C246.428 347.778 246.751 346.443 246.751 344.955C246.751 343.432 246.416 342.074 245.746 340.881C245.087 339.676 244.178 338.727 243.018 338.034C241.859 337.341 240.536 336.989 239.047 336.977C237.979 336.966 236.882 337.131 235.757 337.472C234.632 337.801 233.706 338.227 232.979 338.75L229.024 338.273L231.138 321.091H249.274V324.841H234.683L233.456 335.136H233.661C234.376 334.568 235.274 334.097 236.354 333.722C237.433 333.347 238.558 333.159 239.729 333.159C241.865 333.159 243.768 333.67 245.439 334.693C247.121 335.705 248.439 337.091 249.393 338.852C250.359 340.614 250.842 342.625 250.842 344.886C250.842 347.114 250.342 349.102 249.342 350.852C248.354 352.591 246.99 353.966 245.251 354.977C243.513 355.977 241.536 356.477 239.32 356.477Z" fill="#303644"/>
</g>
<defs>
<linearGradient id="paint0_linear_5_166" x1="23" y1="10" x2="273.752" y2="379.3" gradientUnits="userSpaceOnUse">
<stop stop-color="#ED6981"/>
<stop offset="1" stop-color="#EB5757"/>
</linearGradient>
<clipPath id="clip0_5_166">
<rect width="280" height="395" rx="20" fill="white"/>
</clipPath>
</defs>
</svg>
