<svg width="280" height="395" viewBox="0 0 280 395" fill="none" xmlns="http://www.w3.org/2000/svg">
<g clip-path="url(#clip0_5_165)">
<rect width="280" height="395" rx="20" fill="white"/>
<rect x="15" y="15" width="250" height="365" rx="10" stroke="url(#paint0_linear_5_165)" stroke-width="10"/>
<path d="M82.5898 158V238H72.9023V168.156H72.4336L52.9023 181.125V171.281L72.9023 158H82.5898ZM143.723 166.281L148.723 170.344L119.348 229.875L114.66 225.344L143.723 166.281ZM131.691 239.094C125.806 239.094 120.793 237.492 116.652 234.289C112.512 231.06 109.348 226.385 107.16 220.266C104.973 214.12 103.879 206.698 103.879 198C103.879 189.354 104.973 181.971 107.16 175.852C109.374 169.706 112.551 165.018 116.691 161.789C120.858 158.534 125.858 156.906 131.691 156.906C137.525 156.906 142.512 158.534 146.652 161.789C150.819 165.018 153.996 169.706 156.184 175.852C158.397 181.971 159.504 189.354 159.504 198C159.504 206.698 158.41 214.12 156.223 220.266C154.035 226.385 150.871 231.06 146.73 234.289C142.59 237.492 137.577 239.094 131.691 239.094ZM131.691 230.5C137.525 230.5 142.056 227.687 145.285 222.062C148.514 216.437 150.129 208.417 150.129 198C150.129 191.073 149.387 185.174 147.902 180.305C146.444 175.435 144.335 171.724 141.574 169.172C138.84 166.62 135.546 165.344 131.691 165.344C125.91 165.344 121.392 168.195 118.137 173.898C114.882 179.576 113.254 187.609 113.254 198C113.254 204.927 113.983 210.812 115.441 215.656C116.9 220.5 118.996 224.185 121.73 226.711C124.491 229.237 127.811 230.5 131.691 230.5ZM212.473 166.281L217.473 170.344L188.098 229.875L183.41 225.344L212.473 166.281ZM200.441 239.094C194.556 239.094 189.543 237.492 185.402 234.289C181.262 231.06 178.098 226.385 175.91 220.266C173.723 214.12 172.629 206.698 172.629 198C172.629 189.354 173.723 181.971 175.91 175.852C178.124 169.706 181.301 165.018 185.441 161.789C189.608 158.534 194.608 156.906 200.441 156.906C206.275 156.906 211.262 158.534 215.402 161.789C219.569 165.018 222.746 169.706 224.934 175.852C227.147 181.971 228.254 189.354 228.254 198C228.254 206.698 227.16 214.12 224.973 220.266C222.785 226.385 219.621 231.06 215.48 234.289C211.34 237.492 206.327 239.094 200.441 239.094ZM200.441 230.5C206.275 230.5 210.806 227.687 214.035 222.062C217.264 216.437 218.879 208.417 218.879 198C218.879 191.073 218.137 185.174 216.652 180.305C215.194 175.435 213.085 171.724 210.324 169.172C207.59 166.62 204.296 165.344 200.441 165.344C194.66 165.344 190.142 168.195 186.887 173.898C183.632 179.576 182.004 187.609 182.004 198C182.004 204.927 182.733 210.812 184.191 215.656C185.65 220.5 187.746 224.185 190.48 226.711C193.241 229.237 196.561 230.5 200.441 230.5Z" fill="#303644"/>
<path d="M40.8864 36.0909V71H36.6591V40.5227H36.4545L27.9318 46.1818V41.8864L36.6591 36.0909H40.8864ZM67.5625 39.7045L69.7443 41.4773L56.9261 67.4545L54.8807 65.4773L67.5625 39.7045ZM62.3125 71.4773C59.7443 71.4773 57.5568 70.7784 55.75 69.3807C53.9432 67.9716 52.5625 65.9318 51.608 63.2614C50.6534 60.5795 50.1761 57.3409 50.1761 53.5455C50.1761 49.7727 50.6534 46.5511 51.608 43.8807C52.5739 41.1989 53.9602 39.1534 55.767 37.7443C57.5852 36.3239 59.767 35.6136 62.3125 35.6136C64.858 35.6136 67.0341 36.3239 68.8409 37.7443C70.6591 39.1534 72.0455 41.1989 73 43.8807C73.9659 46.5511 74.4489 49.7727 74.4489 53.5455C74.4489 57.3409 73.9716 60.5795 73.017 63.2614C72.0625 65.9318 70.6818 67.9716 68.875 69.3807C67.0682 70.7784 64.8807 71.4773 62.3125 71.4773ZM62.3125 67.7273C64.858 67.7273 66.8352 66.5 68.2443 64.0455C69.6534 61.5909 70.358 58.0909 70.358 53.5455C70.358 50.5227 70.0341 47.9489 69.3864 45.8239C68.75 43.6989 67.8295 42.0795 66.625 40.9659C65.4318 39.8523 63.9943 39.2955 62.3125 39.2955C59.7898 39.2955 57.8182 40.5398 56.3977 43.0284C54.9773 45.5057 54.267 49.0114 54.267 53.5455C54.267 56.5682 54.5852 59.1364 55.2216 61.25C55.858 63.3636 56.7727 64.9716 57.9659 66.0739C59.1705 67.1761 60.6193 67.7273 62.3125 67.7273ZM97.5625 39.7045L99.7443 41.4773L86.9261 67.4545L84.8807 65.4773L97.5625 39.7045ZM92.3125 71.4773C89.7443 71.4773 87.5568 70.7784 85.75 69.3807C83.9432 67.9716 82.5625 65.9318 81.608 63.2614C80.6534 60.5795 80.1761 57.3409 80.1761 53.5455C80.1761 49.7727 80.6534 46.5511 81.608 43.8807C82.5739 41.1989 83.9602 39.1534 85.767 37.7443C87.5852 36.3239 89.767 35.6136 92.3125 35.6136C94.858 35.6136 97.0341 36.3239 98.8409 37.7443C100.659 39.1534 102.045 41.1989 103 43.8807C103.966 46.5511 104.449 49.7727 104.449 53.5455C104.449 57.3409 103.972 60.5795 103.017 63.2614C102.062 65.9318 100.682 67.9716 98.875 69.3807C97.0682 70.7784 94.8807 71.4773 92.3125 71.4773ZM92.3125 67.7273C94.858 67.7273 96.8352 66.5 98.2443 64.0455C99.6534 61.5909 100.358 58.0909 100.358 53.5455C100.358 50.5227 100.034 47.9489 99.3864 45.8239C98.75 43.6989 97.8295 42.0795 96.625 40.9659C95.4318 39.8523 93.9943 39.2955 92.3125 39.2955C89.7898 39.2955 87.8182 40.5398 86.3977 43.0284C84.9773 45.5057 84.267 49.0114 84.267 53.5455C84.267 56.5682 84.5852 59.1364 85.2216 61.25C85.858 63.3636 86.7727 64.9716 87.9659 66.0739C89.1705 67.1761 90.6193 67.7273 92.3125 67.7273Z" fill="#303644"/>
<path d="M187.574 321.091V356H183.347V325.523H183.142L174.619 331.182V326.886L183.347 321.091H187.574ZM214.25 324.705L216.432 326.477L203.614 352.455L201.568 350.477L214.25 324.705ZM209 356.477C206.432 356.477 204.244 355.778 202.438 354.381C200.631 352.972 199.25 350.932 198.295 348.261C197.341 345.58 196.864 342.341 196.864 338.545C196.864 334.773 197.341 331.551 198.295 328.881C199.261 326.199 200.648 324.153 202.455 322.744C204.273 321.324 206.455 320.614 209 320.614C211.545 320.614 213.722 321.324 215.528 322.744C217.347 324.153 218.733 326.199 219.688 328.881C220.653 331.551 221.136 334.773 221.136 338.545C221.136 342.341 220.659 345.58 219.705 348.261C218.75 350.932 217.369 352.972 215.562 354.381C213.756 355.778 211.568 356.477 209 356.477ZM209 352.727C211.545 352.727 213.523 351.5 214.932 349.045C216.341 346.591 217.045 343.091 217.045 338.545C217.045 335.523 216.722 332.949 216.074 330.824C215.438 328.699 214.517 327.08 213.312 325.966C212.119 324.852 210.682 324.295 209 324.295C206.477 324.295 204.506 325.54 203.085 328.028C201.665 330.506 200.955 334.011 200.955 338.545C200.955 341.568 201.273 344.136 201.909 346.25C202.545 348.364 203.46 349.972 204.653 351.074C205.858 352.176 207.307 352.727 209 352.727ZM244.25 324.705L246.432 326.477L233.614 352.455L231.568 350.477L244.25 324.705ZM239 356.477C236.432 356.477 234.244 355.778 232.438 354.381C230.631 352.972 229.25 350.932 228.295 348.261C227.341 345.58 226.864 342.341 226.864 338.545C226.864 334.773 227.341 331.551 228.295 328.881C229.261 326.199 230.648 324.153 232.455 322.744C234.273 321.324 236.455 320.614 239 320.614C241.545 320.614 243.722 321.324 245.528 322.744C247.347 324.153 248.733 326.199 249.688 328.881C250.653 331.551 251.136 334.773 251.136 338.545C251.136 342.341 250.659 345.58 249.705 348.261C248.75 350.932 247.369 352.972 245.562 354.381C243.756 355.778 241.568 356.477 239 356.477ZM239 352.727C241.545 352.727 243.523 351.5 244.932 349.045C246.341 346.591 247.045 343.091 247.045 338.545C247.045 335.523 246.722 332.949 246.074 330.824C245.438 328.699 244.517 327.08 243.312 325.966C242.119 324.852 240.682 324.295 239 324.295C236.477 324.295 234.506 325.54 233.085 328.028C231.665 330.506 230.955 334.011 230.955 338.545C230.955 341.568 231.273 344.136 231.909 346.25C232.545 348.364 233.46 349.972 234.653 351.074C235.858 352.176 237.307 352.727 239 352.727Z" fill="#303644"/>
</g>
<defs>
<linearGradient id="paint0_linear_5_165" x1="23" y1="10" x2="273.752" y2="379.3" gradientUnits="userSpaceOnUse">
<stop stop-color="#ED6981"/>
<stop offset="1" stop-color="#EB5757"/>
</linearGradient>
<clipPath id="clip0_5_165">
<rect width="280" height="395" rx="20" fill="white"/>
</clipPath>
</defs>
</svg>
