<svg width="280" height="395" viewBox="0 0 280 395" fill="none" xmlns="http://www.w3.org/2000/svg">
<g clip-path="url(#clip0_5_159)">
<rect width="280" height="395" rx="20" fill="white"/>
<rect x="15" y="15" width="250" height="365" rx="10" stroke="url(#paint0_linear_5_159)" stroke-width="10"/>
<path d="M115.82 158V238H106.133V168.156H105.664L86.1328 181.125V171.281L106.133 158H115.82ZM165.859 239.094C160.703 239.094 156.107 238.208 152.07 236.437C148.06 234.667 144.87 232.206 142.5 229.055C140.156 225.878 138.88 222.193 138.672 218H148.516C148.724 220.578 149.609 222.805 151.172 224.68C152.734 226.529 154.779 227.961 157.305 228.977C159.831 229.992 162.63 230.5 165.703 230.5C169.141 230.5 172.188 229.901 174.844 228.703C177.5 227.505 179.583 225.839 181.094 223.703C182.604 221.568 183.359 219.094 183.359 216.281C183.359 213.339 182.63 210.747 181.172 208.508C179.714 206.242 177.578 204.471 174.766 203.195C171.953 201.919 168.516 201.281 164.453 201.281H158.047V192.687H164.453C167.63 192.687 170.417 192.115 172.813 190.969C175.234 189.823 177.122 188.208 178.477 186.125C179.857 184.042 180.547 181.594 180.547 178.781C180.547 176.073 179.948 173.716 178.75 171.711C177.552 169.706 175.859 168.143 173.672 167.023C171.51 165.904 168.958 165.344 166.016 165.344C163.255 165.344 160.651 165.852 158.203 166.867C155.781 167.857 153.802 169.302 152.266 171.203C150.729 173.078 149.896 175.344 149.766 178H140.391C140.547 173.807 141.81 170.135 144.18 166.984C146.549 163.807 149.648 161.333 153.477 159.562C157.331 157.792 161.563 156.906 166.172 156.906C171.12 156.906 175.365 157.909 178.906 159.914C182.448 161.893 185.169 164.51 187.07 167.766C188.971 171.021 189.922 174.536 189.922 178.313C189.922 182.818 188.737 186.659 186.367 189.836C184.023 193.013 180.833 195.214 176.797 196.438V197.062C181.849 197.896 185.794 200.044 188.633 203.508C191.471 206.945 192.891 211.203 192.891 216.281C192.891 220.63 191.706 224.536 189.336 228C186.992 231.437 183.789 234.146 179.727 236.125C175.664 238.104 171.042 239.094 165.859 239.094Z" fill="#303644"/>
<path d="M40.8864 36.0909V71H36.6591V40.5227H36.4545L27.9318 46.1818V41.8864L36.6591 36.0909H40.8864ZM62.7216 71.4773C60.4716 71.4773 58.4659 71.0909 56.7045 70.3182C54.9545 69.5455 53.5625 68.4716 52.5284 67.0966C51.5057 65.7102 50.9489 64.1023 50.858 62.2727H55.1534C55.2443 63.3977 55.6307 64.3693 56.3125 65.1875C56.9943 65.9943 57.8864 66.6193 58.9886 67.0625C60.0909 67.5057 61.3125 67.7273 62.6534 67.7273C64.1534 67.7273 65.483 67.4659 66.642 66.9432C67.8011 66.4205 68.7102 65.6932 69.3693 64.7614C70.0284 63.8295 70.358 62.75 70.358 61.5227C70.358 60.2386 70.0398 59.108 69.4034 58.1307C68.767 57.142 67.8352 56.3693 66.608 55.8125C65.3807 55.2557 63.8807 54.9773 62.108 54.9773H59.3125V51.2273H62.108C63.4943 51.2273 64.7102 50.9773 65.7557 50.4773C66.8125 49.9773 67.6364 49.2727 68.2273 48.3636C68.8295 47.4545 69.1307 46.3864 69.1307 45.1591C69.1307 43.9773 68.8693 42.9489 68.3466 42.0739C67.8239 41.1989 67.0852 40.517 66.1307 40.0284C65.1875 39.5398 64.0739 39.2955 62.7898 39.2955C61.5852 39.2955 60.4489 39.517 59.3807 39.9602C58.3239 40.392 57.4602 41.0227 56.7898 41.8523C56.1193 42.6705 55.7557 43.6591 55.6989 44.8182H51.608C51.6761 42.9886 52.2273 41.3864 53.2614 40.0114C54.2955 38.625 55.6477 37.5455 57.3182 36.7727C59 36 60.8466 35.6136 62.858 35.6136C65.017 35.6136 66.8693 36.0511 68.4148 36.9261C69.9602 37.7898 71.1477 38.9318 71.9773 40.3523C72.8068 41.7727 73.2216 43.3068 73.2216 44.9545C73.2216 46.9205 72.7045 48.5966 71.6705 49.983C70.6477 51.3693 69.2557 52.3295 67.4943 52.8636V53.1364C69.6989 53.5 71.4205 54.4375 72.6591 55.9489C73.8977 57.4489 74.517 59.3068 74.517 61.5227C74.517 63.4205 74 65.125 72.9659 66.6364C71.9432 68.1364 70.5455 69.3182 68.7727 70.1818C67 71.0455 64.983 71.4773 62.7216 71.4773Z" fill="#303644"/>
<path d="M217.011 321.091V356H212.784V325.523H212.58L204.057 331.182V326.886L212.784 321.091H217.011ZM238.847 356.477C236.597 356.477 234.591 356.091 232.83 355.318C231.08 354.545 229.688 353.472 228.653 352.097C227.631 350.71 227.074 349.102 226.983 347.273H231.278C231.369 348.398 231.756 349.369 232.438 350.188C233.119 350.994 234.011 351.619 235.114 352.062C236.216 352.506 237.438 352.727 238.778 352.727C240.278 352.727 241.608 352.466 242.767 351.943C243.926 351.42 244.835 350.693 245.494 349.761C246.153 348.83 246.483 347.75 246.483 346.523C246.483 345.239 246.165 344.108 245.528 343.131C244.892 342.142 243.96 341.369 242.733 340.812C241.506 340.256 240.006 339.977 238.233 339.977H235.438V336.227H238.233C239.619 336.227 240.835 335.977 241.881 335.477C242.938 334.977 243.761 334.273 244.352 333.364C244.955 332.455 245.256 331.386 245.256 330.159C245.256 328.977 244.994 327.949 244.472 327.074C243.949 326.199 243.21 325.517 242.256 325.028C241.313 324.54 240.199 324.295 238.915 324.295C237.71 324.295 236.574 324.517 235.506 324.96C234.449 325.392 233.585 326.023 232.915 326.852C232.244 327.67 231.881 328.659 231.824 329.818H227.733C227.801 327.989 228.352 326.386 229.386 325.011C230.42 323.625 231.773 322.545 233.443 321.773C235.125 321 236.972 320.614 238.983 320.614C241.142 320.614 242.994 321.051 244.54 321.926C246.085 322.79 247.273 323.932 248.102 325.352C248.932 326.773 249.347 328.307 249.347 329.955C249.347 331.92 248.83 333.597 247.795 334.983C246.773 336.369 245.381 337.33 243.619 337.864V338.136C245.824 338.5 247.545 339.437 248.784 340.949C250.023 342.449 250.642 344.307 250.642 346.523C250.642 348.42 250.125 350.125 249.091 351.636C248.068 353.136 246.67 354.318 244.898 355.182C243.125 356.045 241.108 356.477 238.847 356.477Z" fill="#303644"/>
</g>
<defs>
<linearGradient id="paint0_linear_5_159" x1="23" y1="10" x2="273.752" y2="379.3" gradientUnits="userSpaceOnUse">
<stop stop-color="#ED6981"/>
<stop offset="1" stop-color="#EB5757"/>
</linearGradient>
<clipPath id="clip0_5_159">
<rect width="280" height="395" rx="20" fill="white"/>
</clipPath>
</defs>
</svg>
