<svg width="280" height="395" viewBox="0 0 280 395" fill="none" xmlns="http://www.w3.org/2000/svg">
<g clip-path="url(#clip0_5_163)">
<rect width="280" height="395" rx="20" fill="white"/>
<rect x="15" y="15" width="250" height="365" rx="10" stroke="url(#paint0_linear_5_163)" stroke-width="10"/>
<path d="M115.48 238V230.969L141.887 202.062C144.986 198.677 147.538 195.734 149.543 193.234C151.548 190.708 153.033 188.339 153.996 186.125C154.986 183.885 155.48 181.542 155.48 179.094C155.48 176.281 154.803 173.846 153.449 171.789C152.121 169.732 150.298 168.143 147.98 167.023C145.663 165.904 143.059 165.344 140.168 165.344C137.095 165.344 134.413 165.982 132.121 167.258C129.855 168.508 128.098 170.266 126.848 172.531C125.624 174.797 125.012 177.453 125.012 180.5H115.793C115.793 175.812 116.874 171.698 119.035 168.156C121.197 164.615 124.139 161.854 127.863 159.875C131.613 157.896 135.819 156.906 140.48 156.906C145.168 156.906 149.322 157.896 152.941 159.875C156.561 161.854 159.4 164.523 161.457 167.883C163.514 171.242 164.543 174.979 164.543 179.094C164.543 182.036 164.009 184.914 162.941 187.727C161.9 190.513 160.077 193.625 157.473 197.062C154.895 200.474 151.314 204.641 146.73 209.562L128.762 228.781V229.406H165.949V238H115.48Z" fill="#303644"/>
<path d="M28.6136 71V67.9318L40.1364 55.3182C41.4886 53.8409 42.6023 52.5568 43.4773 51.4659C44.3523 50.3636 45 49.3295 45.4205 48.3636C45.8523 47.3864 46.0682 46.3636 46.0682 45.2955C46.0682 44.0682 45.7727 43.0057 45.1818 42.108C44.6023 41.2102 43.8068 40.517 42.7955 40.0284C41.7841 39.5398 40.6477 39.2955 39.3864 39.2955C38.0455 39.2955 36.875 39.5739 35.875 40.1307C34.8864 40.6761 34.1193 41.4432 33.5739 42.4318C33.0398 43.4205 32.7727 44.5795 32.7727 45.9091H28.75C28.75 43.8636 29.2216 42.0682 30.1648 40.5227C31.108 38.9773 32.392 37.7727 34.017 36.9091C35.6534 36.0455 37.4886 35.6136 39.5227 35.6136C41.5682 35.6136 43.3807 36.0455 44.9602 36.9091C46.5398 37.7727 47.7784 38.9375 48.6761 40.4034C49.5739 41.8693 50.0227 43.5 50.0227 45.2955C50.0227 46.5795 49.7898 47.8352 49.3239 49.0625C48.8693 50.2784 48.0739 51.6364 46.9375 53.1364C45.8125 54.625 44.25 56.4432 42.25 58.5909L34.4091 66.9773V67.25H50.6364V71H28.6136Z" fill="#303644"/>
<path d="M228.551 356V352.932L240.074 340.318C241.426 338.841 242.54 337.557 243.415 336.466C244.29 335.364 244.938 334.33 245.358 333.364C245.79 332.386 246.006 331.364 246.006 330.295C246.006 329.068 245.71 328.006 245.119 327.108C244.54 326.21 243.744 325.517 242.733 325.028C241.722 324.54 240.585 324.295 239.324 324.295C237.983 324.295 236.812 324.574 235.812 325.131C234.824 325.676 234.057 326.443 233.511 327.432C232.977 328.42 232.71 329.58 232.71 330.909H228.688C228.688 328.864 229.159 327.068 230.102 325.523C231.045 323.977 232.33 322.773 233.955 321.909C235.591 321.045 237.426 320.614 239.46 320.614C241.506 320.614 243.318 321.045 244.898 321.909C246.477 322.773 247.716 323.937 248.614 325.403C249.511 326.869 249.96 328.5 249.96 330.295C249.96 331.58 249.727 332.835 249.261 334.062C248.807 335.278 248.011 336.636 246.875 338.136C245.75 339.625 244.188 341.443 242.188 343.591L234.347 351.977V352.25H250.574V356H228.551Z" fill="#303644"/>
</g>
<defs>
<linearGradient id="paint0_linear_5_163" x1="23" y1="10" x2="273.752" y2="379.3" gradientUnits="userSpaceOnUse">
<stop stop-color="#ED6981"/>
<stop offset="1" stop-color="#EB5757"/>
</linearGradient>
<clipPath id="clip0_5_163">
<rect width="280" height="395" rx="20" fill="white"/>
</clipPath>
</defs>
</svg>
