<svg width="280" height="395" viewBox="0 0 280 395" fill="none" xmlns="http://www.w3.org/2000/svg">
<g clip-path="url(#clip0_5_158)">
<rect width="280" height="395" rx="20" fill="white"/>
<rect x="15" y="15" width="250" height="365" rx="10" stroke="url(#paint0_linear_5_158)" stroke-width="10"/>
<path d="M80.6055 238V230.969L107.012 202.062C110.111 198.677 112.663 195.734 114.668 193.234C116.673 190.708 118.158 188.339 119.121 186.125C120.111 183.885 120.605 181.542 120.605 179.094C120.605 176.281 119.928 173.846 118.574 171.789C117.246 169.732 115.423 168.143 113.105 167.023C110.788 165.904 108.184 165.344 105.293 165.344C102.22 165.344 99.5378 165.982 97.2461 167.258C94.9805 168.508 93.2227 170.266 91.9727 172.531C90.7487 174.797 90.1367 177.453 90.1367 180.5H80.918C80.918 175.812 81.9987 171.698 84.1602 168.156C86.3216 164.615 89.2643 161.854 92.9883 159.875C96.7383 157.896 100.944 156.906 105.605 156.906C110.293 156.906 114.447 157.896 118.066 159.875C121.686 161.854 124.525 164.523 126.582 167.883C128.639 171.242 129.668 174.979 129.668 179.094C129.668 182.036 129.134 184.914 128.066 187.727C127.025 190.513 125.202 193.625 122.598 197.062C120.02 200.474 116.439 204.641 111.855 209.562L93.8867 228.781V229.406H131.074V238H80.6055ZM185.332 166.281L190.332 170.344L160.957 229.875L156.27 225.344L185.332 166.281ZM173.301 239.094C167.415 239.094 162.402 237.492 158.262 234.289C154.121 231.06 150.957 226.385 148.77 220.266C146.582 214.12 145.488 206.698 145.488 198C145.488 189.354 146.582 181.971 148.77 175.852C150.983 169.706 154.16 165.018 158.301 161.789C162.467 158.534 167.467 156.906 173.301 156.906C179.134 156.906 184.121 158.534 188.262 161.789C192.428 165.018 195.605 169.706 197.793 175.852C200.007 181.971 201.113 189.354 201.113 198C201.113 206.698 200.02 214.12 197.832 220.266C195.645 226.385 192.48 231.06 188.34 234.289C184.199 237.492 179.186 239.094 173.301 239.094ZM173.301 230.5C179.134 230.5 183.665 227.687 186.895 222.062C190.124 216.437 191.738 208.417 191.738 198C191.738 191.073 190.996 185.174 189.512 180.305C188.053 175.435 185.944 171.724 183.184 169.172C180.449 166.62 177.155 165.344 173.301 165.344C167.52 165.344 163.001 168.195 159.746 173.898C156.491 179.576 154.863 187.609 154.863 198C154.863 204.927 155.592 210.812 157.051 215.656C158.509 220.5 160.605 224.185 163.34 226.711C166.1 229.237 169.421 230.5 173.301 230.5Z" fill="#303644"/>
<path d="M28.6136 71V67.9318L40.1364 55.3182C41.4886 53.8409 42.6023 52.5568 43.4773 51.4659C44.3523 50.3636 45 49.3295 45.4205 48.3636C45.8523 47.3864 46.0682 46.3636 46.0682 45.2955C46.0682 44.0682 45.7727 43.0057 45.1818 42.108C44.6023 41.2102 43.8068 40.517 42.7955 40.0284C41.7841 39.5398 40.6477 39.2955 39.3864 39.2955C38.0455 39.2955 36.875 39.5739 35.875 40.1307C34.8864 40.6761 34.1193 41.4432 33.5739 42.4318C33.0398 43.4205 32.7727 44.5795 32.7727 45.9091H28.75C28.75 43.8636 29.2216 42.0682 30.1648 40.5227C31.108 38.9773 32.392 37.7727 34.017 36.9091C35.6534 36.0455 37.4886 35.6136 39.5227 35.6136C41.5682 35.6136 43.3807 36.0455 44.9602 36.9091C46.5398 37.7727 47.7784 38.9375 48.6761 40.4034C49.5739 41.8693 50.0227 43.5 50.0227 45.2955C50.0227 46.5795 49.7898 47.8352 49.3239 49.0625C48.8693 50.2784 48.0739 51.6364 46.9375 53.1364C45.8125 54.625 44.25 56.4432 42.25 58.5909L34.4091 66.9773V67.25H50.6364V71H28.6136ZM74.3125 39.7045L76.4943 41.4773L63.6761 67.4545L61.6307 65.4773L74.3125 39.7045ZM69.0625 71.4773C66.4943 71.4773 64.3068 70.7784 62.5 69.3807C60.6932 67.9716 59.3125 65.9318 58.358 63.2614C57.4034 60.5795 56.9261 57.3409 56.9261 53.5455C56.9261 49.7727 57.4034 46.5511 58.358 43.8807C59.3239 41.1989 60.7102 39.1534 62.517 37.7443C64.3352 36.3239 66.517 35.6136 69.0625 35.6136C71.608 35.6136 73.7841 36.3239 75.5909 37.7443C77.4091 39.1534 78.7955 41.1989 79.75 43.8807C80.7159 46.5511 81.1989 49.7727 81.1989 53.5455C81.1989 57.3409 80.7216 60.5795 79.767 63.2614C78.8125 65.9318 77.4318 67.9716 75.625 69.3807C73.8182 70.7784 71.6307 71.4773 69.0625 71.4773ZM69.0625 67.7273C71.608 67.7273 73.5852 66.5 74.9943 64.0455C76.4034 61.5909 77.108 58.0909 77.108 53.5455C77.108 50.5227 76.7841 47.9489 76.1364 45.8239C75.5 43.6989 74.5795 42.0795 73.375 40.9659C72.1818 39.8523 70.7443 39.2955 69.0625 39.2955C66.5398 39.2955 64.5682 40.5398 63.1477 43.0284C61.7273 45.5057 61.017 49.0114 61.017 53.5455C61.017 56.5682 61.3352 59.1364 61.9716 61.25C62.608 63.3636 63.5227 64.9716 64.7159 66.0739C65.9205 67.1761 67.3693 67.7273 69.0625 67.7273Z" fill="#303644"/>
<path d="M198.551 356V352.932L210.074 340.318C211.426 338.841 212.54 337.557 213.415 336.466C214.29 335.364 214.938 334.33 215.358 333.364C215.79 332.386 216.006 331.364 216.006 330.295C216.006 329.068 215.71 328.006 215.119 327.108C214.54 326.21 213.744 325.517 212.733 325.028C211.722 324.54 210.585 324.295 209.324 324.295C207.983 324.295 206.812 324.574 205.812 325.131C204.824 325.676 204.057 326.443 203.511 327.432C202.977 328.42 202.71 329.58 202.71 330.909H198.688C198.688 328.864 199.159 327.068 200.102 325.523C201.045 323.977 202.33 322.773 203.955 321.909C205.591 321.045 207.426 320.614 209.46 320.614C211.506 320.614 213.318 321.045 214.898 321.909C216.477 322.773 217.716 323.937 218.614 325.403C219.511 326.869 219.96 328.5 219.96 330.295C219.96 331.58 219.727 332.835 219.261 334.062C218.807 335.278 218.011 336.636 216.875 338.136C215.75 339.625 214.188 341.443 212.188 343.591L204.347 351.977V352.25H220.574V356H198.551ZM244.25 324.705L246.432 326.477L233.614 352.455L231.568 350.477L244.25 324.705ZM239 356.477C236.432 356.477 234.244 355.778 232.438 354.381C230.631 352.972 229.25 350.932 228.295 348.261C227.341 345.58 226.864 342.341 226.864 338.545C226.864 334.773 227.341 331.551 228.295 328.881C229.261 326.199 230.648 324.153 232.455 322.744C234.273 321.324 236.455 320.614 239 320.614C241.545 320.614 243.722 321.324 245.528 322.744C247.347 324.153 248.733 326.199 249.688 328.881C250.653 331.551 251.136 334.773 251.136 338.545C251.136 342.341 250.659 345.58 249.705 348.261C248.75 350.932 247.369 352.972 245.562 354.381C243.756 355.778 241.568 356.477 239 356.477ZM239 352.727C241.545 352.727 243.523 351.5 244.932 349.045C246.341 346.591 247.045 343.091 247.045 338.545C247.045 335.523 246.722 332.949 246.074 330.824C245.438 328.699 244.517 327.08 243.312 325.966C242.119 324.852 240.682 324.295 239 324.295C236.477 324.295 234.506 325.54 233.085 328.028C231.665 330.506 230.955 334.011 230.955 338.545C230.955 341.568 231.273 344.136 231.909 346.25C232.545 348.364 233.46 349.972 234.653 351.074C235.858 352.176 237.307 352.727 239 352.727Z" fill="#303644"/>
</g>
<defs>
<linearGradient id="paint0_linear_5_158" x1="23" y1="10" x2="273.752" y2="379.3" gradientUnits="userSpaceOnUse">
<stop stop-color="#ED6981"/>
<stop offset="1" stop-color="#EB5757"/>
</linearGradient>
<clipPath id="clip0_5_158">
<rect width="280" height="395" rx="20" fill="white"/>
</clipPath>
</defs>
</svg>
