<svg width="280" height="395" viewBox="0 0 280 395" fill="none" xmlns="http://www.w3.org/2000/svg">
<g clip-path="url(#clip0_5_161)">
<rect width="280" height="395" rx="20" fill="white"/>
<rect x="15" y="15" width="250" height="365" rx="10" stroke="url(#paint0_linear_5_161)" stroke-width="10"/>
<path d="M140.793 239.094C135.637 239.094 131.04 238.208 127.004 236.437C122.993 234.667 119.803 232.206 117.434 229.055C115.09 225.878 113.814 222.193 113.605 218H123.449C123.658 220.578 124.543 222.805 126.105 224.68C127.668 226.529 129.712 227.961 132.238 228.977C134.764 229.992 137.564 230.5 140.637 230.5C144.074 230.5 147.121 229.901 149.777 228.703C152.434 227.505 154.517 225.839 156.027 223.703C157.538 221.568 158.293 219.094 158.293 216.281C158.293 213.339 157.564 210.747 156.105 208.508C154.647 206.242 152.512 204.471 149.699 203.195C146.887 201.919 143.449 201.281 139.387 201.281H132.98V192.687H139.387C142.564 192.687 145.35 192.115 147.746 190.969C150.168 189.823 152.056 188.208 153.41 186.125C154.79 184.042 155.48 181.594 155.48 178.781C155.48 176.073 154.882 173.716 153.684 171.711C152.486 169.706 150.793 168.143 148.605 167.023C146.444 165.904 143.892 165.344 140.949 165.344C138.189 165.344 135.585 165.852 133.137 166.867C130.715 167.857 128.736 169.302 127.199 171.203C125.663 173.078 124.829 175.344 124.699 178H115.324C115.48 173.807 116.743 170.135 119.113 166.984C121.483 163.807 124.582 161.333 128.41 159.562C132.264 157.792 136.496 156.906 141.105 156.906C146.053 156.906 150.298 157.909 153.84 159.914C157.382 161.893 160.103 164.51 162.004 167.766C163.905 171.021 164.855 174.536 164.855 178.313C164.855 182.818 163.671 186.659 161.301 189.836C158.957 193.013 155.767 195.214 151.73 196.438V197.062C156.783 197.896 160.728 200.044 163.566 203.508C166.405 206.945 167.824 211.203 167.824 216.281C167.824 220.63 166.639 224.536 164.27 228C161.926 231.437 158.723 234.146 154.66 236.125C150.598 238.104 145.975 239.094 140.793 239.094Z" fill="#303644"/>
<path d="M40.4091 71.4773C38.1591 71.4773 36.1534 71.0909 34.392 70.3182C32.642 69.5455 31.25 68.4716 30.2159 67.0966C29.1932 65.7102 28.6364 64.1023 28.5455 62.2727H32.8409C32.9318 63.3977 33.3182 64.3693 34 65.1875C34.6818 65.9943 35.5739 66.6193 36.6761 67.0625C37.7784 67.5057 39 67.7273 40.3409 67.7273C41.8409 67.7273 43.1705 67.4659 44.3295 66.9432C45.4886 66.4205 46.3977 65.6932 47.0568 64.7614C47.7159 63.8295 48.0455 62.75 48.0455 61.5227C48.0455 60.2386 47.7273 59.108 47.0909 58.1307C46.4545 57.142 45.5227 56.3693 44.2955 55.8125C43.0682 55.2557 41.5682 54.9773 39.7955 54.9773H37V51.2273H39.7955C41.1818 51.2273 42.3977 50.9773 43.4432 50.4773C44.5 49.9773 45.3239 49.2727 45.9148 48.3636C46.517 47.4545 46.8182 46.3864 46.8182 45.1591C46.8182 43.9773 46.5568 42.9489 46.0341 42.0739C45.5114 41.1989 44.7727 40.517 43.8182 40.0284C42.875 39.5398 41.7614 39.2955 40.4773 39.2955C39.2727 39.2955 38.1364 39.517 37.0682 39.9602C36.0114 40.392 35.1477 41.0227 34.4773 41.8523C33.8068 42.6705 33.4432 43.6591 33.3864 44.8182H29.2955C29.3636 42.9886 29.9148 41.3864 30.9489 40.0114C31.983 38.625 33.3352 37.5455 35.0057 36.7727C36.6875 36 38.5341 35.6136 40.5455 35.6136C42.7045 35.6136 44.5568 36.0511 46.1023 36.9261C47.6477 37.7898 48.8352 38.9318 49.6648 40.3523C50.4943 41.7727 50.9091 43.3068 50.9091 44.9545C50.9091 46.9205 50.392 48.5966 49.358 49.983C48.3352 51.3693 46.9432 52.3295 45.1818 52.8636V53.1364C47.3864 53.5 49.108 54.4375 50.3466 55.9489C51.5852 57.4489 52.2045 59.3068 52.2045 61.5227C52.2045 63.4205 51.6875 65.125 50.6534 66.6364C49.6307 68.1364 48.233 69.3182 46.4602 70.1818C44.6875 71.0455 42.6705 71.4773 40.4091 71.4773Z" fill="#303644"/>
<path d="M238.847 356.477C236.597 356.477 234.591 356.091 232.83 355.318C231.08 354.545 229.688 353.472 228.653 352.097C227.631 350.71 227.074 349.102 226.983 347.273H231.278C231.369 348.398 231.756 349.369 232.438 350.188C233.119 350.994 234.011 351.619 235.114 352.062C236.216 352.506 237.438 352.727 238.778 352.727C240.278 352.727 241.608 352.466 242.767 351.943C243.926 351.42 244.835 350.693 245.494 349.761C246.153 348.83 246.483 347.75 246.483 346.523C246.483 345.239 246.165 344.108 245.528 343.131C244.892 342.142 243.96 341.369 242.733 340.812C241.506 340.256 240.006 339.977 238.233 339.977H235.438V336.227H238.233C239.619 336.227 240.835 335.977 241.881 335.477C242.938 334.977 243.761 334.273 244.352 333.364C244.955 332.455 245.256 331.386 245.256 330.159C245.256 328.977 244.994 327.949 244.472 327.074C243.949 326.199 243.21 325.517 242.256 325.028C241.313 324.54 240.199 324.295 238.915 324.295C237.71 324.295 236.574 324.517 235.506 324.96C234.449 325.392 233.585 326.023 232.915 326.852C232.244 327.67 231.881 328.659 231.824 329.818H227.733C227.801 327.989 228.352 326.386 229.386 325.011C230.42 323.625 231.773 322.545 233.443 321.773C235.125 321 236.972 320.614 238.983 320.614C241.142 320.614 242.994 321.051 244.54 321.926C246.085 322.79 247.273 323.932 248.102 325.352C248.932 326.773 249.347 328.307 249.347 329.955C249.347 331.92 248.83 333.597 247.795 334.983C246.773 336.369 245.381 337.33 243.619 337.864V338.136C245.824 338.5 247.545 339.437 248.784 340.949C250.023 342.449 250.642 344.307 250.642 346.523C250.642 348.42 250.125 350.125 249.091 351.636C248.068 353.136 246.67 354.318 244.898 355.182C243.125 356.045 241.108 356.477 238.847 356.477Z" fill="#303644"/>
</g>
<defs>
<linearGradient id="paint0_linear_5_161" x1="23" y1="10" x2="273.752" y2="379.3" gradientUnits="userSpaceOnUse">
<stop stop-color="#ED6981"/>
<stop offset="1" stop-color="#EB5757"/>
</linearGradient>
<clipPath id="clip0_5_161">
<rect width="280" height="395" rx="20" fill="white"/>
</clipPath>
</defs>
</svg>
