<svg width="280" height="395" viewBox="0 0 280 395" fill="none" xmlns="http://www.w3.org/2000/svg">
<g clip-path="url(#clip0_5_157)">
<rect width="280" height="395" rx="20" fill="white"/>
<rect x="15" y="15" width="250" height="365" rx="10" stroke="url(#paint0_linear_5_157)" stroke-width="10"/>
<path d="M76.7432 221.594V213.625L111.899 158H117.681V170.344H113.774L87.2119 212.375V213H134.556V221.594H76.7432ZM114.399 238V219.172V215.461V158H123.618V238H114.399ZM187.319 166.281L192.319 170.344L162.944 229.875L158.257 225.344L187.319 166.281ZM175.288 239.094C169.403 239.094 164.39 237.492 160.249 234.289C156.108 231.06 152.944 226.385 150.757 220.266C148.569 214.12 147.476 206.698 147.476 198C147.476 189.354 148.569 181.971 150.757 175.852C152.97 169.706 156.147 165.018 160.288 161.789C164.455 158.534 169.455 156.906 175.288 156.906C181.121 156.906 186.108 158.534 190.249 161.789C194.416 165.018 197.593 169.706 199.78 175.852C201.994 181.971 203.101 189.354 203.101 198C203.101 206.698 202.007 214.12 199.819 220.266C197.632 226.385 194.468 231.06 190.327 234.289C186.187 237.492 181.174 239.094 175.288 239.094ZM175.288 230.5C181.121 230.5 185.653 227.687 188.882 222.062C192.111 216.437 193.726 208.417 193.726 198C193.726 191.073 192.983 185.174 191.499 180.305C190.041 175.435 187.931 171.724 185.171 169.172C182.437 166.62 179.142 165.344 175.288 165.344C169.507 165.344 164.989 168.195 161.733 173.898C158.478 179.576 156.851 187.609 156.851 198C156.851 204.927 157.58 210.812 159.038 215.656C160.496 220.5 162.593 224.185 165.327 226.711C168.088 229.237 171.408 230.5 175.288 230.5Z" fill="#303644"/>
<path d="M27.7955 63.8409V60.3636L43.1364 36.0909H45.6591V41.4773H43.9545L32.3636 59.8182V60.0909H53.0227V63.8409H27.7955ZM44.2273 71V62.7841V61.1648V36.0909H48.25V71H44.2273ZM76.0469 39.7045L78.2287 41.4773L65.4105 67.4545L63.3651 65.4773L76.0469 39.7045ZM70.7969 71.4773C68.2287 71.4773 66.0412 70.7784 64.2344 69.3807C62.4276 67.9716 61.0469 65.9318 60.0923 63.2614C59.1378 60.5795 58.6605 57.3409 58.6605 53.5455C58.6605 49.7727 59.1378 46.5511 60.0923 43.8807C61.0582 41.1989 62.4446 39.1534 64.2514 37.7443C66.0696 36.3239 68.2514 35.6136 70.7969 35.6136C73.3423 35.6136 75.5185 36.3239 77.3253 37.7443C79.1435 39.1534 80.5298 41.1989 81.4844 43.8807C82.4503 46.5511 82.9332 49.7727 82.9332 53.5455C82.9332 57.3409 82.456 60.5795 81.5014 63.2614C80.5469 65.9318 79.1662 67.9716 77.3594 69.3807C75.5526 70.7784 73.3651 71.4773 70.7969 71.4773ZM70.7969 67.7273C73.3423 67.7273 75.3196 66.5 76.7287 64.0455C78.1378 61.5909 78.8423 58.0909 78.8423 53.5455C78.8423 50.5227 78.5185 47.9489 77.8707 45.8239C77.2344 43.6989 76.3139 42.0795 75.1094 40.9659C73.9162 39.8523 72.4787 39.2955 70.7969 39.2955C68.2741 39.2955 66.3026 40.5398 64.8821 43.0284C63.4616 45.5057 62.7514 49.0114 62.7514 53.5455C62.7514 56.5682 63.0696 59.1364 63.706 61.25C64.3423 63.3636 65.2571 64.9716 66.4503 66.0739C67.6548 67.1761 69.1037 67.7273 70.7969 67.7273Z" fill="#303644"/>
<path d="M195.999 348.841V345.364L211.339 321.091H213.862V326.477H212.158L200.567 344.818V345.091H221.226V348.841H195.999ZM212.43 356V347.784V346.165V321.091H216.453V356H212.43ZM244.25 324.705L246.432 326.477L233.614 352.455L231.568 350.477L244.25 324.705ZM239 356.477C236.432 356.477 234.244 355.778 232.438 354.381C230.631 352.972 229.25 350.932 228.295 348.261C227.341 345.58 226.864 342.341 226.864 338.545C226.864 334.773 227.341 331.551 228.295 328.881C229.261 326.199 230.648 324.153 232.455 322.744C234.273 321.324 236.455 320.614 239 320.614C241.545 320.614 243.722 321.324 245.528 322.744C247.347 324.153 248.733 326.199 249.688 328.881C250.653 331.551 251.136 334.773 251.136 338.545C251.136 342.341 250.659 345.58 249.705 348.261C248.75 350.932 247.369 352.972 245.562 354.381C243.756 355.778 241.568 356.477 239 356.477ZM239 352.727C241.545 352.727 243.523 351.5 244.932 349.045C246.341 346.591 247.045 343.091 247.045 338.545C247.045 335.523 246.722 332.949 246.074 330.824C245.438 328.699 244.517 327.08 243.312 325.966C242.119 324.852 240.682 324.295 239 324.295C236.477 324.295 234.506 325.54 233.085 328.028C231.665 330.506 230.955 334.011 230.955 338.545C230.955 341.568 231.273 344.136 231.909 346.25C232.545 348.364 233.46 349.972 234.653 351.074C235.858 352.176 237.307 352.727 239 352.727Z" fill="#303644"/>
</g>
<defs>
<linearGradient id="paint0_linear_5_157" x1="23" y1="10" x2="273.752" y2="379.3" gradientUnits="userSpaceOnUse">
<stop stop-color="#ED6981"/>
<stop offset="1" stop-color="#EB5757"/>
</linearGradient>
<clipPath id="clip0_5_157">
<rect width="280" height="395" rx="20" fill="white"/>
</clipPath>
</defs>
</svg>
