<svg width="280" height="395" viewBox="0 0 280 395" fill="none" xmlns="http://www.w3.org/2000/svg">
<g clip-path="url(#clip0_5_162)">
<rect width="280" height="395" rx="20" fill="white"/>
<rect x="15" y="15" width="250" height="365" rx="10" stroke="url(#paint0_linear_5_162)" stroke-width="10"/>
<path d="M140.015 239.094C134.65 239.094 129.91 238.143 125.796 236.242C121.707 234.315 118.517 231.672 116.226 228.312C113.934 224.927 112.801 221.073 112.827 216.75C112.801 213.365 113.465 210.24 114.819 207.375C116.174 204.484 118.022 202.076 120.366 200.148C122.736 198.195 125.379 196.958 128.296 196.438V195.969C124.468 194.979 121.421 192.831 119.155 189.523C116.89 186.19 115.77 182.401 115.796 178.156C115.77 174.094 116.799 170.461 118.882 167.258C120.965 164.055 123.83 161.529 127.476 159.68C131.147 157.831 135.327 156.906 140.015 156.906C144.65 156.906 148.791 157.831 152.437 159.68C156.082 161.529 158.947 164.055 161.03 167.258C163.14 170.461 164.207 174.094 164.233 178.156C164.207 182.401 163.049 186.19 160.757 189.523C158.491 192.831 155.483 194.979 151.733 195.969V196.438C154.624 196.958 157.228 198.195 159.546 200.148C161.864 202.076 163.713 204.484 165.093 207.375C166.473 210.24 167.176 213.365 167.202 216.75C167.176 221.073 166.004 224.927 163.687 228.312C161.395 231.672 158.205 234.315 154.116 236.242C150.054 238.143 145.353 239.094 140.015 239.094ZM140.015 230.5C143.634 230.5 146.759 229.914 149.39 228.742C152.02 227.57 154.051 225.917 155.483 223.781C156.916 221.646 157.645 219.146 157.671 216.281C157.645 213.26 156.864 210.591 155.327 208.273C153.791 205.956 151.694 204.133 149.038 202.805C146.408 201.477 143.4 200.812 140.015 200.812C136.603 200.812 133.556 201.477 130.874 202.805C128.218 204.133 126.121 205.956 124.585 208.273C123.075 210.591 122.332 213.26 122.358 216.281C122.332 219.146 123.022 221.646 124.429 223.781C125.861 225.917 127.905 227.57 130.562 228.742C133.218 229.914 136.369 230.5 140.015 230.5ZM140.015 192.531C142.879 192.531 145.418 191.958 147.632 190.812C149.871 189.667 151.629 188.065 152.905 186.008C154.181 183.951 154.832 181.542 154.858 178.781C154.832 176.073 154.194 173.716 152.944 171.711C151.694 169.68 149.963 168.117 147.749 167.023C145.535 165.904 142.957 165.344 140.015 165.344C137.02 165.344 134.403 165.904 132.163 167.023C129.924 168.117 128.192 169.68 126.968 171.711C125.744 173.716 125.145 176.073 125.171 178.781C125.145 181.542 125.757 183.951 127.007 186.008C128.283 188.065 130.041 189.667 132.28 190.812C134.52 191.958 137.098 192.531 140.015 192.531Z" fill="#303644"/>
<path d="M39.7955 71.4773C37.4545 71.4773 35.3864 71.0625 33.5909 70.233C31.8068 69.392 30.4148 68.2386 29.4148 66.7727C28.4148 65.2955 27.9205 63.6136 27.9318 61.7273C27.9205 60.25 28.2102 58.8864 28.8011 57.6364C29.392 56.375 30.1989 55.3239 31.2216 54.483C32.2557 53.6307 33.4091 53.0909 34.6818 52.8636V52.6591C33.0114 52.2273 31.6818 51.2898 30.6932 49.8466C29.7045 48.392 29.2159 46.7386 29.2273 44.8864C29.2159 43.1136 29.6648 41.5284 30.5739 40.1307C31.483 38.733 32.733 37.6307 34.3239 36.8239C35.9261 36.017 37.75 35.6136 39.7955 35.6136C41.8182 35.6136 43.625 36.017 45.2159 36.8239C46.8068 37.6307 48.0568 38.733 48.9659 40.1307C49.8864 41.5284 50.3523 43.1136 50.3636 44.8864C50.3523 46.7386 49.8466 48.392 48.8466 49.8466C47.858 51.2898 46.5455 52.2273 44.9091 52.6591V52.8636C46.1705 53.0909 47.3068 53.6307 48.3182 54.483C49.3295 55.3239 50.1364 56.375 50.7386 57.6364C51.3409 58.8864 51.6477 60.25 51.6591 61.7273C51.6477 63.6136 51.1364 65.2955 50.125 66.7727C49.125 68.2386 47.733 69.392 45.9489 70.233C44.1761 71.0625 42.125 71.4773 39.7955 71.4773ZM39.7955 67.7273C41.375 67.7273 42.7386 67.4716 43.8864 66.9602C45.0341 66.4489 45.9205 65.7273 46.5455 64.7955C47.1705 63.8636 47.4886 62.7727 47.5 61.5227C47.4886 60.2045 47.1477 59.0398 46.4773 58.0284C45.8068 57.017 44.892 56.2216 43.733 55.642C42.5852 55.0625 41.2727 54.7727 39.7955 54.7727C38.3068 54.7727 36.9773 55.0625 35.8068 55.642C34.6477 56.2216 33.733 57.017 33.0625 58.0284C32.4034 59.0398 32.0795 60.2045 32.0909 61.5227C32.0795 62.7727 32.3807 63.8636 32.9943 64.7955C33.6193 65.7273 34.5114 66.4489 35.6705 66.9602C36.8295 67.4716 38.2045 67.7273 39.7955 67.7273ZM39.7955 51.1591C41.0455 51.1591 42.1534 50.9091 43.1193 50.4091C44.0966 49.9091 44.8636 49.2102 45.4205 48.3125C45.9773 47.4148 46.2614 46.3636 46.2727 45.1591C46.2614 43.9773 45.983 42.9489 45.4375 42.0739C44.892 41.1875 44.1364 40.5057 43.1705 40.0284C42.2045 39.5398 41.0795 39.2955 39.7955 39.2955C38.4886 39.2955 37.3466 39.5398 36.3693 40.0284C35.392 40.5057 34.6364 41.1875 34.1023 42.0739C33.5682 42.9489 33.3068 43.9773 33.3182 45.1591C33.3068 46.3636 33.5739 47.4148 34.1193 48.3125C34.6761 49.2102 35.4432 49.9091 36.4205 50.4091C37.3977 50.9091 38.5227 51.1591 39.7955 51.1591Z" fill="#303644"/>
<path d="M239.217 356.477C236.876 356.477 234.808 356.062 233.013 355.233C231.229 354.392 229.837 353.239 228.837 351.773C227.837 350.295 227.342 348.614 227.354 346.727C227.342 345.25 227.632 343.886 228.223 342.636C228.814 341.375 229.621 340.324 230.643 339.483C231.678 338.631 232.831 338.091 234.104 337.864V337.659C232.433 337.227 231.104 336.29 230.115 334.847C229.126 333.392 228.638 331.739 228.649 329.886C228.638 328.114 229.087 326.528 229.996 325.131C230.905 323.733 232.155 322.631 233.746 321.824C235.348 321.017 237.172 320.614 239.217 320.614C241.24 320.614 243.047 321.017 244.638 321.824C246.229 322.631 247.479 323.733 248.388 325.131C249.308 326.528 249.774 328.114 249.786 329.886C249.774 331.739 249.268 333.392 248.268 334.847C247.28 336.29 245.967 337.227 244.331 337.659V337.864C245.592 338.091 246.729 338.631 247.74 339.483C248.751 340.324 249.558 341.375 250.161 342.636C250.763 343.886 251.07 345.25 251.081 346.727C251.07 348.614 250.558 350.295 249.547 351.773C248.547 353.239 247.155 354.392 245.371 355.233C243.598 356.062 241.547 356.477 239.217 356.477ZM239.217 352.727C240.797 352.727 242.161 352.472 243.308 351.96C244.456 351.449 245.342 350.727 245.967 349.795C246.592 348.864 246.911 347.773 246.922 346.523C246.911 345.205 246.57 344.04 245.899 343.028C245.229 342.017 244.314 341.222 243.155 340.642C242.007 340.062 240.695 339.773 239.217 339.773C237.729 339.773 236.399 340.062 235.229 340.642C234.07 341.222 233.155 342.017 232.484 343.028C231.825 344.04 231.501 345.205 231.513 346.523C231.501 347.773 231.803 348.864 232.416 349.795C233.041 350.727 233.933 351.449 235.092 351.96C236.251 352.472 237.626 352.727 239.217 352.727ZM239.217 336.159C240.467 336.159 241.575 335.909 242.541 335.409C243.518 334.909 244.286 334.21 244.842 333.312C245.399 332.415 245.683 331.364 245.695 330.159C245.683 328.977 245.405 327.949 244.859 327.074C244.314 326.187 243.558 325.506 242.592 325.028C241.626 324.54 240.501 324.295 239.217 324.295C237.911 324.295 236.768 324.54 235.791 325.028C234.814 325.506 234.058 326.187 233.524 327.074C232.99 327.949 232.729 328.977 232.74 330.159C232.729 331.364 232.996 332.415 233.541 333.312C234.098 334.21 234.865 334.909 235.842 335.409C236.82 335.909 237.945 336.159 239.217 336.159Z" fill="#303644"/>
</g>
<defs>
<linearGradient id="paint0_linear_5_162" x1="23" y1="10" x2="273.752" y2="379.3" gradientUnits="userSpaceOnUse">
<stop stop-color="#ED6981"/>
<stop offset="1" stop-color="#EB5757"/>
</linearGradient>
<clipPath id="clip0_5_162">
<rect width="280" height="395" rx="20" fill="white"/>
</clipPath>
</defs>
</svg>
