<svg width="280" height="395" viewBox="0 0 280 395" fill="none" xmlns="http://www.w3.org/2000/svg">
<g clip-path="url(#clip0_5_123)">
<rect width="280" height="395" rx="20" fill="white"/>
<rect x="15" y="15" width="250" height="365" rx="10" stroke="url(#paint0_linear_5_123)" stroke-width="10"/>
<path d="M131.073 219.364V218.767C131.139 212.437 131.802 207.399 133.061 203.653C134.321 199.908 136.111 196.875 138.431 194.555C140.751 192.235 143.535 190.098 146.783 188.142C148.738 186.949 150.495 185.54 152.053 183.916C153.61 182.259 154.837 180.353 155.732 178.199C156.66 176.045 157.124 173.658 157.124 171.04C157.124 167.792 156.361 164.974 154.837 162.588C153.312 160.202 151.274 158.362 148.722 157.07C146.17 155.777 143.336 155.131 140.22 155.131C137.503 155.131 134.884 155.694 132.365 156.821C129.846 157.948 127.742 159.721 126.051 162.141C124.361 164.56 123.383 167.725 123.118 171.636H110.59C110.855 166.002 112.313 161.179 114.965 157.169C117.649 153.159 121.179 150.093 125.554 147.972C129.962 145.85 134.851 144.79 140.22 144.79C146.054 144.79 151.125 145.95 155.433 148.27C159.775 150.59 163.123 153.772 165.476 157.815C167.862 161.859 169.056 166.466 169.056 171.636C169.056 175.282 168.492 178.58 167.365 181.53C166.271 184.48 164.681 187.115 162.593 189.435C160.538 191.755 158.052 193.81 155.135 195.599C152.218 197.422 149.882 199.345 148.125 201.366C146.369 203.355 145.093 205.725 144.297 208.476C143.502 211.227 143.071 214.657 143.004 218.767V219.364H131.073ZM137.436 248.795C134.984 248.795 132.879 247.917 131.122 246.161C129.366 244.404 128.487 242.299 128.487 239.847C128.487 237.394 129.366 235.289 131.122 233.533C132.879 231.776 134.984 230.898 137.436 230.898C139.889 230.898 141.994 231.776 143.75 233.533C145.507 235.289 146.385 237.394 146.385 239.847C146.385 241.471 145.971 242.962 145.142 244.321C144.347 245.68 143.27 246.774 141.911 247.602C140.585 248.398 139.093 248.795 137.436 248.795Z" fill="#303644"/>
<path d="M33.9318 61.1818V60.9773C33.9545 58.8068 34.1818 57.0795 34.6136 55.7955C35.0455 54.5114 35.6591 53.4716 36.4545 52.6761C37.25 51.8807 38.2045 51.1477 39.3182 50.4773C39.9886 50.0682 40.5909 49.5852 41.125 49.0284C41.6591 48.4602 42.0795 47.8068 42.3864 47.0682C42.7045 46.3295 42.8636 45.5114 42.8636 44.6136C42.8636 43.5 42.6023 42.5341 42.0795 41.7159C41.5568 40.8977 40.858 40.267 39.983 39.8239C39.108 39.3807 38.1364 39.1591 37.0682 39.1591C36.1364 39.1591 35.2386 39.3523 34.375 39.7386C33.5114 40.125 32.7898 40.733 32.2102 41.5625C31.6307 42.392 31.2955 43.4773 31.2045 44.8182H26.9091C27 42.8864 27.5 41.233 28.4091 39.858C29.3295 38.483 30.5398 37.4318 32.0398 36.7045C33.5511 35.9773 35.2273 35.6136 37.0682 35.6136C39.0682 35.6136 40.8068 36.0114 42.2841 36.8068C43.7727 37.6023 44.9205 38.6932 45.7273 40.0795C46.5455 41.4659 46.9545 43.0455 46.9545 44.8182C46.9545 46.0682 46.7614 47.1989 46.375 48.2102C46 49.2216 45.4545 50.125 44.7386 50.9205C44.0341 51.7159 43.1818 52.4205 42.1818 53.0341C41.1818 53.6591 40.3807 54.3182 39.7784 55.0114C39.1761 55.6932 38.7386 56.5057 38.4659 57.4489C38.1932 58.392 38.0455 59.5682 38.0227 60.9773V61.1818H33.9318ZM36.1136 71.2727C35.2727 71.2727 34.5511 70.9716 33.9489 70.3693C33.3466 69.767 33.0455 69.0455 33.0455 68.2045C33.0455 67.3636 33.3466 66.642 33.9489 66.0398C34.5511 65.4375 35.2727 65.1364 36.1136 65.1364C36.9545 65.1364 37.6761 65.4375 38.2784 66.0398C38.8807 66.642 39.1818 67.3636 39.1818 68.2045C39.1818 68.7614 39.0398 69.2727 38.7557 69.7386C38.483 70.2045 38.1136 70.5795 37.6477 70.8636C37.1932 71.1364 36.6818 71.2727 36.1136 71.2727Z" fill="#303644"/>
<path d="M238.604 346.182V345.977C238.626 343.807 238.854 342.08 239.286 340.795C239.717 339.511 240.331 338.472 241.126 337.676C241.922 336.881 242.876 336.148 243.99 335.477C244.661 335.068 245.263 334.585 245.797 334.028C246.331 333.46 246.751 332.807 247.058 332.068C247.376 331.33 247.536 330.511 247.536 329.614C247.536 328.5 247.274 327.534 246.751 326.716C246.229 325.898 245.53 325.267 244.655 324.824C243.78 324.381 242.808 324.159 241.74 324.159C240.808 324.159 239.911 324.352 239.047 324.739C238.183 325.125 237.462 325.733 236.882 326.562C236.303 327.392 235.967 328.477 235.876 329.818H231.581C231.672 327.886 232.172 326.233 233.081 324.858C234.001 323.483 235.212 322.432 236.712 321.705C238.223 320.977 239.899 320.614 241.74 320.614C243.74 320.614 245.479 321.011 246.956 321.807C248.445 322.602 249.592 323.693 250.399 325.08C251.217 326.466 251.626 328.045 251.626 329.818C251.626 331.068 251.433 332.199 251.047 333.21C250.672 334.222 250.126 335.125 249.411 335.92C248.706 336.716 247.854 337.42 246.854 338.034C245.854 338.659 245.053 339.318 244.45 340.011C243.848 340.693 243.411 341.506 243.138 342.449C242.865 343.392 242.717 344.568 242.695 345.977V346.182H238.604ZM240.786 356.273C239.945 356.273 239.223 355.972 238.621 355.369C238.018 354.767 237.717 354.045 237.717 353.205C237.717 352.364 238.018 351.642 238.621 351.04C239.223 350.437 239.945 350.136 240.786 350.136C241.626 350.136 242.348 350.437 242.95 351.04C243.553 351.642 243.854 352.364 243.854 353.205C243.854 353.761 243.712 354.273 243.428 354.739C243.155 355.205 242.786 355.58 242.32 355.864C241.865 356.136 241.354 356.273 240.786 356.273Z" fill="#303644"/>
</g>
<defs>
<linearGradient id="paint0_linear_5_123" x1="23" y1="10" x2="273.752" y2="379.3" gradientUnits="userSpaceOnUse">
<stop stop-color="#ED6981"/>
<stop offset="1" stop-color="#EB5757"/>
</linearGradient>
<clipPath id="clip0_5_123">
<rect width="280" height="395" rx="20" fill="white"/>
</clipPath>
</defs>
</svg>
