<svg width="280" height="395" viewBox="0 0 280 395" fill="none" xmlns="http://www.w3.org/2000/svg">
<g clip-path="url(#clip0_5_156)">
<rect width="280" height="395" rx="20" fill="white"/>
<rect x="15" y="15" width="250" height="365" rx="10" stroke="url(#paint0_linear_5_156)" stroke-width="10"/>
<path d="M105.856 166.281L110.856 170.344L81.4814 229.875L76.7939 225.344L105.856 166.281ZM93.8252 239.094C87.9398 239.094 82.9268 237.492 78.7861 234.289C74.6455 231.06 71.4814 226.385 69.2939 220.266C67.1064 214.12 66.0127 206.698 66.0127 198C66.0127 189.354 67.1064 181.971 69.2939 175.852C71.5075 169.706 74.6846 165.018 78.8252 161.789C82.9919 158.534 87.9919 156.906 93.8252 156.906C99.6585 156.906 104.646 158.534 108.786 161.789C112.953 165.018 116.13 169.706 118.317 175.852C120.531 181.971 121.638 189.354 121.638 198C121.638 206.698 120.544 214.12 118.356 220.266C116.169 226.385 113.005 231.06 108.864 234.289C104.724 237.492 99.7106 239.094 93.8252 239.094ZM93.8252 230.5C99.6585 230.5 104.19 227.687 107.419 222.062C110.648 216.437 112.263 208.417 112.263 198C112.263 191.073 111.521 185.174 110.036 180.305C108.578 175.435 106.468 171.724 103.708 169.172C100.974 166.62 97.6794 165.344 93.8252 165.344C88.0439 165.344 83.5257 168.195 80.2705 173.898C77.0153 179.576 75.3877 187.609 75.3877 198C75.3877 204.927 76.1169 210.812 77.5752 215.656C79.0335 220.5 81.1299 224.185 83.8643 226.711C86.6247 229.237 89.945 230.5 93.8252 230.5ZM147.595 227.062L146.97 231.281C146.527 234.25 145.85 237.427 144.938 240.813C144.053 244.198 143.129 247.388 142.165 250.383C141.201 253.378 140.407 255.76 139.782 257.531H132.751C133.09 255.865 133.532 253.664 134.079 250.93C134.626 248.195 135.173 245.135 135.72 241.75C136.293 238.391 136.761 234.953 137.126 231.437L137.595 227.062H147.595ZM187.907 239.094C183.324 239.094 179.196 238.182 175.524 236.359C171.853 234.536 168.91 232.036 166.696 228.859C164.483 225.682 163.272 222.062 163.063 218H172.438C172.803 221.62 174.444 224.615 177.36 226.984C180.303 229.328 183.819 230.5 187.907 230.5C191.188 230.5 194.105 229.732 196.657 228.195C199.235 226.659 201.254 224.549 202.712 221.867C204.196 219.159 204.938 216.099 204.938 212.687C204.938 209.198 204.17 206.086 202.634 203.352C201.123 200.591 199.04 198.417 196.384 196.828C193.728 195.24 190.694 194.432 187.282 194.406C184.834 194.38 182.321 194.758 179.743 195.539C177.165 196.294 175.043 197.271 173.376 198.469L164.313 197.375L169.157 158H210.72V166.594H177.282L174.47 190.187H174.938C176.579 188.885 178.636 187.805 181.11 186.945C183.584 186.086 186.162 185.656 188.845 185.656C193.741 185.656 198.103 186.828 201.931 189.172C205.785 191.49 208.806 194.667 210.993 198.703C213.207 202.74 214.313 207.349 214.313 212.531C214.313 217.635 213.168 222.193 210.876 226.203C208.61 230.187 205.485 233.339 201.501 235.656C197.517 237.948 192.985 239.094 187.907 239.094Z" fill="#303644"/>
<path d="M52.25 38.7045L54.4318 40.4773L41.6136 66.4545L39.5682 64.4773L52.25 38.7045ZM47 70.4773C44.4318 70.4773 42.2443 69.7784 40.4375 68.3807C38.6307 66.9716 37.25 64.9318 36.2955 62.2614C35.3409 59.5795 34.8636 56.3409 34.8636 52.5455C34.8636 48.7727 35.3409 45.5511 36.2955 42.8807C37.2614 40.1989 38.6477 38.1534 40.4545 36.7443C42.2727 35.3239 44.4545 34.6136 47 34.6136C49.5455 34.6136 51.7216 35.3239 53.5284 36.7443C55.3466 38.1534 56.733 40.1989 57.6875 42.8807C58.6534 45.5511 59.1364 48.7727 59.1364 52.5455C59.1364 56.3409 58.6591 59.5795 57.7045 62.2614C56.75 64.9318 55.3693 66.9716 53.5625 68.3807C51.7557 69.7784 49.5682 70.4773 47 70.4773ZM47 66.7273C49.5455 66.7273 51.5227 65.5 52.9318 63.0455C54.3409 60.5909 55.0455 57.0909 55.0455 52.5455C55.0455 49.5227 54.7216 46.9489 54.0739 44.8239C53.4375 42.6989 52.517 41.0795 51.3125 39.9659C50.1193 38.8523 48.6818 38.2955 47 38.2955C44.4773 38.2955 42.5057 39.5398 41.0852 42.0284C39.6648 44.5057 38.9545 48.0114 38.9545 52.5455C38.9545 55.5682 39.2727 58.1364 39.9091 60.25C40.5455 62.3636 41.4602 63.9716 42.6534 65.0739C43.858 66.1761 45.3068 66.7273 47 66.7273ZM70.4631 65.2273L70.1903 67.0682C69.9972 68.3636 69.7017 69.75 69.304 71.2273C68.9176 72.7045 68.5142 74.0966 68.0938 75.4034C67.6733 76.7102 67.3267 77.75 67.054 78.5227H63.9858C64.1335 77.7955 64.3267 76.8352 64.5653 75.642C64.804 74.4489 65.0426 73.1136 65.2812 71.6364C65.5312 70.1705 65.7358 68.6705 65.8949 67.1364L66.0994 65.2273H70.4631ZM88.054 70.4773C86.054 70.4773 84.2528 70.0795 82.6506 69.2841C81.0483 68.4886 79.7642 67.3977 78.7983 66.0114C77.8324 64.625 77.304 63.0455 77.2131 61.2727H81.304C81.4631 62.8523 82.179 64.1591 83.4517 65.1932C84.7358 66.2159 86.2699 66.7273 88.054 66.7273C89.4858 66.7273 90.7585 66.392 91.8722 65.7216C92.9972 65.0511 93.8778 64.1307 94.5142 62.9602C95.1619 61.7784 95.4858 60.4432 95.4858 58.9545C95.4858 57.4318 95.1506 56.0739 94.4801 54.8807C93.821 53.6761 92.9119 52.7273 91.7528 52.0341C90.5938 51.3409 89.2699 50.9886 87.7812 50.9773C86.7131 50.9659 85.6165 51.1307 84.4915 51.4716C83.3665 51.8011 82.4403 52.2273 81.7131 52.75L77.7585 52.2727L79.8722 35.0909H98.0085V38.8409H83.4176L82.1903 49.1364H82.3949C83.1108 48.5682 84.0085 48.0966 85.0881 47.7216C86.1676 47.3466 87.2926 47.1591 88.4631 47.1591C90.5994 47.1591 92.5028 47.6705 94.1733 48.6932C95.8551 49.7045 97.1733 51.0909 98.1278 52.8523C99.0938 54.6136 99.5767 56.625 99.5767 58.8864C99.5767 61.1136 99.0767 63.1023 98.0767 64.8523C97.0881 66.5909 95.7244 67.9659 93.9858 68.9773C92.2472 69.9773 90.2699 70.4773 88.054 70.4773Z" fill="#303644"/>
<path d="M197.516 327.705L199.697 329.477L186.879 355.455L184.834 353.477L197.516 327.705ZM192.266 359.477C189.697 359.477 187.51 358.778 185.703 357.381C183.896 355.972 182.516 353.932 181.561 351.261C180.607 348.58 180.129 345.341 180.129 341.545C180.129 337.773 180.607 334.551 181.561 331.881C182.527 329.199 183.913 327.153 185.72 325.744C187.538 324.324 189.72 323.614 192.266 323.614C194.811 323.614 196.987 324.324 198.794 325.744C200.612 327.153 201.999 329.199 202.953 331.881C203.919 334.551 204.402 337.773 204.402 341.545C204.402 345.341 203.925 348.58 202.97 351.261C202.016 353.932 200.635 355.972 198.828 357.381C197.021 358.778 194.834 359.477 192.266 359.477ZM192.266 355.727C194.811 355.727 196.788 354.5 198.197 352.045C199.607 349.591 200.311 346.091 200.311 341.545C200.311 338.523 199.987 335.949 199.339 333.824C198.703 331.699 197.783 330.08 196.578 328.966C195.385 327.852 193.947 327.295 192.266 327.295C189.743 327.295 187.771 328.54 186.351 331.028C184.93 333.506 184.22 337.011 184.22 341.545C184.22 344.568 184.538 347.136 185.175 349.25C185.811 351.364 186.726 352.972 187.919 354.074C189.124 355.176 190.572 355.727 192.266 355.727ZM215.729 354.227L215.456 356.068C215.263 357.364 214.967 358.75 214.57 360.227C214.183 361.705 213.78 363.097 213.359 364.403C212.939 365.71 212.592 366.75 212.32 367.523H209.251C209.399 366.795 209.592 365.835 209.831 364.642C210.07 363.449 210.308 362.114 210.547 360.636C210.797 359.17 211.001 357.67 211.161 356.136L211.365 354.227H215.729ZM233.32 359.477C231.32 359.477 229.518 359.08 227.916 358.284C226.314 357.489 225.03 356.398 224.064 355.011C223.098 353.625 222.57 352.045 222.479 350.273H226.57C226.729 351.852 227.445 353.159 228.717 354.193C230.001 355.216 231.536 355.727 233.32 355.727C234.751 355.727 236.024 355.392 237.138 354.722C238.263 354.051 239.143 353.131 239.78 351.96C240.428 350.778 240.751 349.443 240.751 347.955C240.751 346.432 240.416 345.074 239.746 343.881C239.087 342.676 238.178 341.727 237.018 341.034C235.859 340.341 234.536 339.989 233.047 339.977C231.979 339.966 230.882 340.131 229.757 340.472C228.632 340.801 227.706 341.227 226.979 341.75L223.024 341.273L225.138 324.091H243.274V327.841H228.683L227.456 338.136H227.661C228.376 337.568 229.274 337.097 230.354 336.722C231.433 336.347 232.558 336.159 233.729 336.159C235.865 336.159 237.768 336.67 239.439 337.693C241.121 338.705 242.439 340.091 243.393 341.852C244.359 343.614 244.842 345.625 244.842 347.886C244.842 350.114 244.342 352.102 243.342 353.852C242.354 355.591 240.99 356.966 239.251 357.977C237.513 358.977 235.536 359.477 233.32 359.477Z" fill="#303644"/>
</g>
<defs>
<linearGradient id="paint0_linear_5_156" x1="23" y1="10" x2="273.752" y2="379.3" gradientUnits="userSpaceOnUse">
<stop stop-color="#2F80ED"/>
<stop offset="1" stop-color="#4D55F0"/>
</linearGradient>
<clipPath id="clip0_5_156">
<rect width="280" height="395" rx="20" fill="white"/>
</clipPath>
</defs>
</svg>
