<svg width="280" height="395" viewBox="0 0 280 395" fill="none" xmlns="http://www.w3.org/2000/svg">
<g clip-path="url(#clip0_5_155)">
<rect width="280" height="395" rx="20" fill="white"/>
<rect x="15" y="15" width="250" height="365" rx="10" stroke="url(#paint0_linear_5_155)" stroke-width="10"/>
<path d="M76.7432 221.594V213.625L111.899 158H117.681V170.344H113.774L87.2119 212.375V213H134.556V221.594H76.7432ZM114.399 238V219.172V215.461V158H123.618V238H114.399ZM187.319 166.281L192.319 170.344L162.944 229.875L158.257 225.344L187.319 166.281ZM175.288 239.094C169.403 239.094 164.39 237.492 160.249 234.289C156.108 231.06 152.944 226.385 150.757 220.266C148.569 214.12 147.476 206.698 147.476 198C147.476 189.354 148.569 181.971 150.757 175.852C152.97 169.706 156.147 165.018 160.288 161.789C164.455 158.534 169.455 156.906 175.288 156.906C181.121 156.906 186.108 158.534 190.249 161.789C194.416 165.018 197.593 169.706 199.78 175.852C201.994 181.971 203.101 189.354 203.101 198C203.101 206.698 202.007 214.12 199.819 220.266C197.632 226.385 194.468 231.06 190.327 234.289C186.187 237.492 181.174 239.094 175.288 239.094ZM175.288 230.5C181.121 230.5 185.653 227.687 188.882 222.062C192.111 216.437 193.726 208.417 193.726 198C193.726 191.073 192.983 185.174 191.499 180.305C190.041 175.435 187.931 171.724 185.171 169.172C182.437 166.62 179.142 165.344 175.288 165.344C169.507 165.344 164.989 168.195 161.733 173.898C158.478 179.576 156.851 187.609 156.851 198C156.851 204.927 157.58 210.812 159.038 215.656C160.496 220.5 162.593 224.185 165.327 226.711C168.088 229.237 171.408 230.5 175.288 230.5Z" fill="#303644"/>
<path d="M34.7955 62.8409V59.3636L50.1364 35.0909H52.6591V40.4773H50.9545L39.3636 58.8182V59.0909H60.0227V62.8409H34.7955ZM51.2273 70V61.7841V60.1648V35.0909H55.25V70H51.2273ZM83.0469 38.7045L85.2287 40.4773L72.4105 66.4545L70.3651 64.4773L83.0469 38.7045ZM77.7969 70.4773C75.2287 70.4773 73.0412 69.7784 71.2344 68.3807C69.4276 66.9716 68.0469 64.9318 67.0923 62.2614C66.1378 59.5795 65.6605 56.3409 65.6605 52.5455C65.6605 48.7727 66.1378 45.5511 67.0923 42.8807C68.0582 40.1989 69.4446 38.1534 71.2514 36.7443C73.0696 35.3239 75.2514 34.6136 77.7969 34.6136C80.3423 34.6136 82.5185 35.3239 84.3253 36.7443C86.1435 38.1534 87.5298 40.1989 88.4844 42.8807C89.4503 45.5511 89.9332 48.7727 89.9332 52.5455C89.9332 56.3409 89.456 59.5795 88.5014 62.2614C87.5469 64.9318 86.1662 66.9716 84.3594 68.3807C82.5526 69.7784 80.3651 70.4773 77.7969 70.4773ZM77.7969 66.7273C80.3423 66.7273 82.3196 65.5 83.7287 63.0455C85.1378 60.5909 85.8423 57.0909 85.8423 52.5455C85.8423 49.5227 85.5185 46.9489 84.8707 44.8239C84.2344 42.6989 83.3139 41.0795 82.1094 39.9659C80.9162 38.8523 79.4787 38.2955 77.7969 38.2955C75.2741 38.2955 73.3026 39.5398 71.8821 42.0284C70.4616 44.5057 69.7514 48.0114 69.7514 52.5455C69.7514 55.5682 70.0696 58.1364 70.706 60.25C71.3423 62.3636 72.2571 63.9716 73.4503 65.0739C74.6548 66.1761 76.1037 66.7273 77.7969 66.7273Z" fill="#303644"/>
<path d="M189.999 351.841V348.364L205.339 324.091H207.862V329.477H206.158L194.567 347.818V348.091H215.226V351.841H189.999ZM206.43 359V350.784V349.165V324.091H210.453V359H206.43ZM238.25 327.705L240.432 329.477L227.614 355.455L225.568 353.477L238.25 327.705ZM233 359.477C230.432 359.477 228.244 358.778 226.438 357.381C224.631 355.972 223.25 353.932 222.295 351.261C221.341 348.58 220.864 345.341 220.864 341.545C220.864 337.773 221.341 334.551 222.295 331.881C223.261 329.199 224.648 327.153 226.455 325.744C228.273 324.324 230.455 323.614 233 323.614C235.545 323.614 237.722 324.324 239.528 325.744C241.347 327.153 242.733 329.199 243.688 331.881C244.653 334.551 245.136 337.773 245.136 341.545C245.136 345.341 244.659 348.58 243.705 351.261C242.75 353.932 241.369 355.972 239.562 357.381C237.756 358.778 235.568 359.477 233 359.477ZM233 355.727C235.545 355.727 237.523 354.5 238.932 352.045C240.341 349.591 241.045 346.091 241.045 341.545C241.045 338.523 240.722 335.949 240.074 333.824C239.438 331.699 238.517 330.08 237.312 328.966C236.119 327.852 234.682 327.295 233 327.295C230.477 327.295 228.506 328.54 227.085 331.028C225.665 333.506 224.955 337.011 224.955 341.545C224.955 344.568 225.273 347.136 225.909 349.25C226.545 351.364 227.46 352.972 228.653 354.074C229.858 355.176 231.307 355.727 233 355.727Z" fill="#303644"/>
</g>
<defs>
<linearGradient id="paint0_linear_5_155" x1="23" y1="10" x2="273.752" y2="379.3" gradientUnits="userSpaceOnUse">
<stop stop-color="#2F80ED"/>
<stop offset="1" stop-color="#4D55F0"/>
</linearGradient>
<clipPath id="clip0_5_155">
<rect width="280" height="395" rx="20" fill="white"/>
</clipPath>
</defs>
</svg>
