<svg width="280" height="395" viewBox="0 0 280 395" fill="none" xmlns="http://www.w3.org/2000/svg">
<g clip-path="url(#clip0_5_151)">
<rect width="280" height="395" rx="20" fill="white"/>
<rect x="15" y="15" width="250" height="365" rx="10" stroke="url(#paint0_linear_5_151)" stroke-width="10"/>
<path d="M140.015 239.094C134.65 239.094 129.91 238.143 125.796 236.242C121.707 234.315 118.517 231.672 116.226 228.312C113.934 224.927 112.801 221.073 112.827 216.75C112.801 213.365 113.465 210.24 114.819 207.375C116.174 204.484 118.022 202.076 120.366 200.148C122.736 198.195 125.379 196.958 128.296 196.438V195.969C124.468 194.979 121.421 192.831 119.155 189.523C116.89 186.19 115.77 182.401 115.796 178.156C115.77 174.094 116.799 170.461 118.882 167.258C120.965 164.055 123.83 161.529 127.476 159.68C131.147 157.831 135.327 156.906 140.015 156.906C144.65 156.906 148.791 157.831 152.437 159.68C156.082 161.529 158.947 164.055 161.03 167.258C163.14 170.461 164.207 174.094 164.233 178.156C164.207 182.401 163.049 186.19 160.757 189.523C158.491 192.831 155.483 194.979 151.733 195.969V196.438C154.624 196.958 157.228 198.195 159.546 200.148C161.864 202.076 163.713 204.484 165.093 207.375C166.473 210.24 167.176 213.365 167.202 216.75C167.176 221.073 166.004 224.927 163.687 228.312C161.395 231.672 158.205 234.315 154.116 236.242C150.054 238.143 145.353 239.094 140.015 239.094ZM140.015 230.5C143.634 230.5 146.759 229.914 149.39 228.742C152.02 227.57 154.051 225.917 155.483 223.781C156.916 221.646 157.645 219.146 157.671 216.281C157.645 213.26 156.864 210.591 155.327 208.273C153.791 205.956 151.694 204.133 149.038 202.805C146.408 201.477 143.4 200.812 140.015 200.812C136.603 200.812 133.556 201.477 130.874 202.805C128.218 204.133 126.121 205.956 124.585 208.273C123.075 210.591 122.332 213.26 122.358 216.281C122.332 219.146 123.022 221.646 124.429 223.781C125.861 225.917 127.905 227.57 130.562 228.742C133.218 229.914 136.369 230.5 140.015 230.5ZM140.015 192.531C142.879 192.531 145.418 191.958 147.632 190.812C149.871 189.667 151.629 188.065 152.905 186.008C154.181 183.951 154.832 181.542 154.858 178.781C154.832 176.073 154.194 173.716 152.944 171.711C151.694 169.68 149.963 168.117 147.749 167.023C145.535 165.904 142.957 165.344 140.015 165.344C137.02 165.344 134.403 165.904 132.163 167.023C129.924 168.117 128.192 169.68 126.968 171.711C125.744 173.716 125.145 176.073 125.171 178.781C125.145 181.542 125.757 183.951 127.007 186.008C128.283 188.065 130.041 189.667 132.28 190.812C134.52 191.958 137.098 192.531 140.015 192.531Z" fill="#303644"/>
<path d="M46.7955 70.4773C44.4545 70.4773 42.3864 70.0625 40.5909 69.233C38.8068 68.392 37.4148 67.2386 36.4148 65.7727C35.4148 64.2955 34.9205 62.6136 34.9318 60.7273C34.9205 59.25 35.2102 57.8864 35.8011 56.6364C36.392 55.375 37.1989 54.3239 38.2216 53.483C39.2557 52.6307 40.4091 52.0909 41.6818 51.8636V51.6591C40.0114 51.2273 38.6818 50.2898 37.6932 48.8466C36.7045 47.392 36.2159 45.7386 36.2273 43.8864C36.2159 42.1136 36.6648 40.5284 37.5739 39.1307C38.483 37.733 39.733 36.6307 41.3239 35.8239C42.9261 35.017 44.75 34.6136 46.7955 34.6136C48.8182 34.6136 50.625 35.017 52.2159 35.8239C53.8068 36.6307 55.0568 37.733 55.9659 39.1307C56.8864 40.5284 57.3523 42.1136 57.3636 43.8864C57.3523 45.7386 56.8466 47.392 55.8466 48.8466C54.858 50.2898 53.5455 51.2273 51.9091 51.6591V51.8636C53.1705 52.0909 54.3068 52.6307 55.3182 53.483C56.3295 54.3239 57.1364 55.375 57.7386 56.6364C58.3409 57.8864 58.6477 59.25 58.6591 60.7273C58.6477 62.6136 58.1364 64.2955 57.125 65.7727C56.125 67.2386 54.733 68.392 52.9489 69.233C51.1761 70.0625 49.125 70.4773 46.7955 70.4773ZM46.7955 66.7273C48.375 66.7273 49.7386 66.4716 50.8864 65.9602C52.0341 65.4489 52.9205 64.7273 53.5455 63.7955C54.1705 62.8636 54.4886 61.7727 54.5 60.5227C54.4886 59.2045 54.1477 58.0398 53.4773 57.0284C52.8068 56.017 51.892 55.2216 50.733 54.642C49.5852 54.0625 48.2727 53.7727 46.7955 53.7727C45.3068 53.7727 43.9773 54.0625 42.8068 54.642C41.6477 55.2216 40.733 56.017 40.0625 57.0284C39.4034 58.0398 39.0795 59.2045 39.0909 60.5227C39.0795 61.7727 39.3807 62.8636 39.9943 63.7955C40.6193 64.7273 41.5114 65.4489 42.6705 65.9602C43.8295 66.4716 45.2045 66.7273 46.7955 66.7273ZM46.7955 50.1591C48.0455 50.1591 49.1534 49.9091 50.1193 49.4091C51.0966 48.9091 51.8636 48.2102 52.4205 47.3125C52.9773 46.4148 53.2614 45.3636 53.2727 44.1591C53.2614 42.9773 52.983 41.9489 52.4375 41.0739C51.892 40.1875 51.1364 39.5057 50.1705 39.0284C49.2045 38.5398 48.0795 38.2955 46.7955 38.2955C45.4886 38.2955 44.3466 38.5398 43.3693 39.0284C42.392 39.5057 41.6364 40.1875 41.1023 41.0739C40.5682 41.9489 40.3068 42.9773 40.3182 44.1591C40.3068 45.3636 40.5739 46.4148 41.1193 47.3125C41.6761 48.2102 42.4432 48.9091 43.4205 49.4091C44.3977 49.9091 45.5227 50.1591 46.7955 50.1591Z" fill="#303644"/>
<path d="M233.217 359.477C230.876 359.477 228.808 359.062 227.013 358.233C225.229 357.392 223.837 356.239 222.837 354.773C221.837 353.295 221.342 351.614 221.354 349.727C221.342 348.25 221.632 346.886 222.223 345.636C222.814 344.375 223.621 343.324 224.643 342.483C225.678 341.631 226.831 341.091 228.104 340.864V340.659C226.433 340.227 225.104 339.29 224.115 337.847C223.126 336.392 222.638 334.739 222.649 332.886C222.638 331.114 223.087 329.528 223.996 328.131C224.905 326.733 226.155 325.631 227.746 324.824C229.348 324.017 231.172 323.614 233.217 323.614C235.24 323.614 237.047 324.017 238.638 324.824C240.229 325.631 241.479 326.733 242.388 328.131C243.308 329.528 243.774 331.114 243.786 332.886C243.774 334.739 243.268 336.392 242.268 337.847C241.28 339.29 239.967 340.227 238.331 340.659V340.864C239.592 341.091 240.729 341.631 241.74 342.483C242.751 343.324 243.558 344.375 244.161 345.636C244.763 346.886 245.07 348.25 245.081 349.727C245.07 351.614 244.558 353.295 243.547 354.773C242.547 356.239 241.155 357.392 239.371 358.233C237.598 359.062 235.547 359.477 233.217 359.477ZM233.217 355.727C234.797 355.727 236.161 355.472 237.308 354.96C238.456 354.449 239.342 353.727 239.967 352.795C240.592 351.864 240.911 350.773 240.922 349.523C240.911 348.205 240.57 347.04 239.899 346.028C239.229 345.017 238.314 344.222 237.155 343.642C236.007 343.062 234.695 342.773 233.217 342.773C231.729 342.773 230.399 343.062 229.229 343.642C228.07 344.222 227.155 345.017 226.484 346.028C225.825 347.04 225.501 348.205 225.513 349.523C225.501 350.773 225.803 351.864 226.416 352.795C227.041 353.727 227.933 354.449 229.092 354.96C230.251 355.472 231.626 355.727 233.217 355.727ZM233.217 339.159C234.467 339.159 235.575 338.909 236.541 338.409C237.518 337.909 238.286 337.21 238.842 336.312C239.399 335.415 239.683 334.364 239.695 333.159C239.683 331.977 239.405 330.949 238.859 330.074C238.314 329.187 237.558 328.506 236.592 328.028C235.626 327.54 234.501 327.295 233.217 327.295C231.911 327.295 230.768 327.54 229.791 328.028C228.814 328.506 228.058 329.187 227.524 330.074C226.99 330.949 226.729 331.977 226.74 333.159C226.729 334.364 226.996 335.415 227.541 336.312C228.098 337.21 228.865 337.909 229.842 338.409C230.82 338.909 231.945 339.159 233.217 339.159Z" fill="#303644"/>
</g>
<defs>
<linearGradient id="paint0_linear_5_151" x1="23" y1="10" x2="273.752" y2="379.3" gradientUnits="userSpaceOnUse">
<stop stop-color="#2F80ED"/>
<stop offset="1" stop-color="#4D55F0"/>
</linearGradient>
<clipPath id="clip0_5_151">
<rect width="280" height="395" rx="20" fill="white"/>
</clipPath>
</defs>
</svg>
