<svg width="280" height="395" viewBox="0 0 280 395" fill="none" xmlns="http://www.w3.org/2000/svg">
<g clip-path="url(#clip0_5_170)">
<rect width="280" height="395" rx="20" fill="white"/>
<rect x="15" y="15" width="250" height="365" rx="10" stroke="url(#paint0_linear_5_170)" stroke-width="10"/>
</g>
<path d="M54.4594 34C62.8004 34 69.5621 40.7157 69.5621 49C69.5621 57.2843 62.8004 64 54.4594 64H51.1032C42.7622 64 36.0005 57.2843 36.0005 49C36.0005 40.7157 42.7622 34 51.1032 34L54.4594 34Z" stroke="#303644" stroke-width="6"/>
<path d="M90.8977 34C99.2388 34 106 40.7157 106 49C106 57.2843 99.2388 64 90.8977 64H87.5416C79.2006 64 72.4388 57.2843 72.4388 49C72.4388 40.7157 79.2006 34 87.5416 34L90.8977 34Z" stroke="#303644" stroke-width="6"/>
<path d="M192.459 331C200.8 331 207.562 337.716 207.562 346C207.562 354.284 200.8 361 192.459 361H189.103C180.762 361 174 354.284 174 346C174 337.716 180.762 331 189.103 331L192.459 331Z" stroke="#303644" stroke-width="6"/>
<path d="M228.898 331C237.239 331 244 337.716 244 346C244 354.284 237.239 361 228.898 361H225.542C217.201 361 210.439 354.284 210.439 346C210.439 337.716 217.201 331 225.542 331L228.898 331Z" stroke="#303644" stroke-width="6"/>
<path fill-rule="evenodd" clip-rule="evenodd" d="M220 198.5C220 177.237 202.763 160 181.5 160L174.5 160C159.382 160 146.299 168.714 140 181.393C133.701 168.714 120.618 160 105.5 160L98.5 160C77.237 160 60 177.237 60 198.5C60 219.763 77.237 237 98.5 237L105.5 237C120.618 237 133.701 228.286 140 215.607C146.299 228.286 159.382 237 174.5 237L181.5 237C202.763 237 220 219.763 220 198.5ZM181.5 174C195.031 174 206 184.969 206 198.5C206 212.031 195.031 223 181.5 223L174.5 223C160.969 223 150 212.031 150 198.5C150 184.969 160.969 174 174.5 174L181.5 174ZM105.5 174C119.031 174 130 184.969 130 198.5C130 212.031 119.031 223 105.5 223L98.5 223C84.969 223 74 212.031 74 198.5C74 184.969 84.969 174 98.5 174L105.5 174Z" fill="#303644"/>
<defs>
<linearGradient id="paint0_linear_5_170" x1="23" y1="10" x2="273.752" y2="379.3" gradientUnits="userSpaceOnUse">
<stop stop-color="#2F80ED"/>
<stop offset="1" stop-color="#4D55F0"/>
</linearGradient>
<clipPath id="clip0_5_170">
<rect width="280" height="395" rx="20" fill="white"/>
</clipPath>
</defs>
</svg>
