<svg width="280" height="395" viewBox="0 0 280 395" fill="none" xmlns="http://www.w3.org/2000/svg">
<g clip-path="url(#clip0_5_121)">
<rect width="280" height="395" rx="20" fill="white"/>
<rect x="15" y="15" width="250" height="365" rx="10" stroke="url(#paint0_linear_5_121)" stroke-width="10"/>
</g>
<path d="M202.425 138.575C191.41 127.927 176.899 121.648 161.597 120.91C146.295 120.173 131.246 125.026 119.258 134.565C116.657 130.391 113.031 126.952 108.724 124.577C104.418 122.201 99.5747 120.968 94.6566 120.995C89.7385 121.021 84.9091 122.307 80.6285 124.729C76.348 127.15 72.7588 130.628 70.2029 134.83C67.647 139.032 66.2096 143.818 66.0276 148.733C65.8456 153.648 66.9251 158.527 69.1632 162.907C71.4012 167.286 74.7234 171.02 78.8131 173.751C82.9029 176.483 87.624 178.122 92.5266 178.512C90.505 190.903 92.3934 203.615 97.9295 214.882C98.2308 215.46 98.3493 216.115 98.2691 216.762C98.1888 217.408 97.9137 218.015 97.4803 218.501L78.8335 229.73C74.0885 232.229 70.316 236.243 68.1171 241.134C65.9181 246.025 65.4192 251.511 66.6998 256.718C67.9804 261.925 70.9669 266.554 75.1834 269.867C79.3999 273.181 84.6039 274.987 89.9664 275C90.9464 275 91.9256 274.942 92.8988 274.827C96.4648 274.412 99.8904 273.194 102.919 271.266C105.947 269.338 108.499 266.749 110.384 263.694L123.654 243.629C124.132 243.161 124.745 242.854 125.407 242.751C126.069 242.649 126.746 242.756 127.343 243.058C139.321 248.857 152.848 250.649 165.922 248.168C178.997 245.687 190.927 239.065 199.948 229.281C212.228 217.184 219.404 200.841 220 183.614C220.332 175.301 218.942 167.009 215.917 159.258C212.893 151.508 208.299 144.466 202.425 138.575ZM78.8335 149.875C78.8335 146.702 79.7743 143.601 81.537 140.963C83.2997 138.325 85.805 136.269 88.7362 135.054C91.6675 133.84 94.8929 133.523 98.0047 134.141C101.116 134.76 103.975 136.288 106.218 138.532C108.462 140.775 109.99 143.634 110.609 146.745C111.228 149.857 110.91 153.083 109.696 156.014C108.482 158.945 106.425 161.45 103.787 163.213C101.149 164.976 98.0479 165.917 94.8751 165.917C90.6206 165.917 86.5404 164.226 83.532 161.218C80.5236 158.21 78.8335 154.129 78.8335 149.875ZM132.99 231.533C129.776 229.942 126.12 229.477 122.609 230.212C119.098 230.948 115.937 232.841 113.631 235.589C113.477 235.775 113.336 235.967 113.201 236.166L99.5529 256.815C98.2076 259.015 96.1433 260.681 93.7098 261.533C91.2763 262.385 88.6232 262.369 86.1999 261.489C83.7767 260.608 81.7323 258.917 80.4132 256.702C79.0941 254.486 78.5813 251.883 78.9618 249.333C79.2367 247.537 79.9408 245.835 81.0143 244.369C82.0878 242.903 83.499 241.718 85.1282 240.915L104.641 229.166C104.926 228.995 105.196 228.802 105.45 228.588C108.19 226.278 110.074 223.114 110.799 219.604C111.524 216.094 111.048 212.442 109.447 209.235C105.257 200.778 103.708 191.256 105.001 181.907L159.112 236.019C150.155 237.066 141.085 235.509 132.99 231.533ZM190.875 220.208C185.833 225.261 179.887 229.32 173.345 232.175C173.287 232.111 173.268 232.027 173.203 231.963L113.227 171.98C116.502 169.3 119.144 165.928 120.964 162.106C122.783 158.284 123.735 154.108 123.75 149.875C123.75 149.111 123.583 148.393 123.526 147.648C133.026 138.855 145.494 133.971 158.439 133.971C171.383 133.971 183.852 138.855 193.352 147.648C197.985 152.307 201.604 157.875 203.982 164C206.359 170.126 207.444 176.677 207.167 183.242C206.664 197.194 200.834 210.423 190.875 220.208Z" fill="#303644"/>
<path d="M236.996 330.027C234.493 327.61 231.196 326.184 227.719 326.017C224.243 325.849 220.823 326.951 218.1 329.117C217.509 328.169 216.685 327.388 215.706 326.849C214.728 326.31 213.627 326.03 212.51 326.036C211.392 326.042 210.295 326.334 209.323 326.884C208.35 327.433 207.535 328.223 206.954 329.177C206.373 330.131 206.047 331.217 206.005 332.333C205.964 333.449 206.209 334.557 206.718 335.551C207.226 336.545 207.981 337.393 208.91 338.013C209.839 338.633 210.912 339.006 212.026 339.094C211.567 341.907 211.996 344.793 213.254 347.351C213.322 347.482 213.349 347.631 213.331 347.778C213.312 347.925 213.25 348.063 213.151 348.173L208.915 350.722C207.837 351.289 206.98 352.201 206.48 353.311C205.98 354.422 205.867 355.667 206.158 356.849C206.449 358.032 207.127 359.083 208.085 359.835C209.043 360.587 210.226 360.997 211.444 361C211.667 361 211.889 360.987 212.111 360.961C212.921 360.866 213.699 360.59 214.387 360.152C215.075 359.715 215.655 359.127 216.083 358.433L219.098 353.878C219.207 353.771 219.346 353.702 219.497 353.679C219.647 353.655 219.801 353.68 219.937 353.748C222.658 355.065 225.731 355.471 228.702 354.908C231.673 354.345 234.383 352.842 236.433 350.62C239.223 347.874 240.854 344.163 240.989 340.252C241.064 338.365 240.749 336.482 240.061 334.723C239.374 332.963 238.331 331.365 236.996 330.027ZM208.915 332.593C208.915 331.872 209.129 331.168 209.529 330.569C209.93 329.97 210.499 329.503 211.165 329.228C211.831 328.952 212.564 328.88 213.271 329.021C213.978 329.161 214.627 329.508 215.137 330.017C215.647 330.527 215.994 331.176 216.134 331.882C216.275 332.588 216.203 333.321 215.927 333.986C215.651 334.652 215.184 335.221 214.585 335.621C213.985 336.021 213.28 336.235 212.56 336.235C211.593 336.235 210.666 335.851 209.982 335.168C209.299 334.485 208.915 333.558 208.915 332.593ZM221.22 351.132C220.489 350.77 219.659 350.665 218.861 350.832C218.063 350.999 217.345 351.429 216.821 352.052C216.786 352.095 216.754 352.138 216.723 352.183L213.622 356.871C213.317 357.371 212.848 357.749 212.295 357.943C211.742 358.136 211.139 358.132 210.588 357.932C210.038 357.733 209.573 357.349 209.274 356.846C208.974 356.343 208.857 355.752 208.944 355.173C209.006 354.765 209.166 354.379 209.41 354.046C209.654 353.713 209.975 353.444 210.345 353.262L214.779 350.594C214.843 350.555 214.905 350.512 214.962 350.463C215.585 349.939 216.013 349.22 216.178 348.423C216.342 347.626 216.234 346.797 215.871 346.069C214.918 344.149 214.566 341.987 214.86 339.865L227.155 352.15C225.12 352.388 223.059 352.034 221.22 351.132ZM234.372 348.56C233.226 349.708 231.875 350.629 230.389 351.277C230.375 351.263 230.371 351.244 230.356 351.229L216.729 337.611C217.473 337.003 218.074 336.237 218.487 335.369C218.9 334.502 219.117 333.553 219.12 332.593C219.12 332.419 219.082 332.256 219.069 332.087C221.228 330.091 224.061 328.982 227.002 328.982C229.943 328.982 232.776 330.091 234.934 332.087C235.987 333.145 236.809 334.409 237.35 335.799C237.89 337.19 238.136 338.677 238.073 340.168C237.959 343.335 236.634 346.339 234.372 348.56Z" fill="#303644"/>
<path d="M66.9958 40.0271C64.4933 37.6096 61.1961 36.1842 57.7193 36.0166C54.2425 35.8491 50.8234 36.9509 48.0997 39.1166C47.5087 38.169 46.6847 37.3883 45.7062 36.849C44.7277 36.3097 43.6274 36.0298 42.5099 36.0358C41.3925 36.0419 40.2952 36.3337 39.3226 36.8835C38.35 37.4333 37.5345 38.2228 36.9538 39.1768C36.3731 40.1308 36.0465 41.2174 36.0052 42.3333C35.9638 43.4491 36.2091 44.5569 36.7176 45.5512C37.2261 46.5455 37.9809 47.3931 38.9102 48.0133C39.8394 48.6335 40.912 49.0056 42.026 49.0942C41.5666 51.9072 41.9957 54.7932 43.2535 57.3513C43.322 57.4824 43.3489 57.6312 43.3307 57.778C43.3125 57.9248 43.25 58.0625 43.1515 58.1729L38.9148 60.7223C37.8367 61.2895 36.9795 62.2009 36.4799 63.3113C35.9803 64.4217 35.8669 65.6672 36.1579 66.8494C36.4489 68.0316 37.1274 69.0826 38.0854 69.8348C39.0435 70.587 40.2259 70.9972 41.4443 71C41.6669 71 41.8894 70.9868 42.1105 70.9607C42.9208 70.8664 43.6991 70.5901 44.3872 70.1523C45.0752 69.7146 45.6551 69.1268 46.0834 68.4331L49.0984 63.8777C49.2071 63.7714 49.3464 63.7018 49.4967 63.6785C49.647 63.6553 49.8009 63.6796 49.9367 63.7481C52.6582 65.0647 55.7314 65.4715 58.7022 64.9082C61.6729 64.345 64.3834 62.8416 66.4331 60.6203C69.2231 57.8739 70.8536 54.1635 70.9891 50.2523C71.0645 48.365 70.7487 46.4825 70.0615 44.7229C69.3743 42.9633 68.3306 41.3646 66.9958 40.0271ZM38.9148 42.5925C38.9148 41.8722 39.1285 41.1681 39.529 40.5691C39.9295 39.9702 40.4988 39.5034 41.1648 39.2278C41.8308 38.9521 42.5636 38.88 43.2706 39.0205C43.9777 39.161 44.6271 39.5079 45.1368 40.0173C45.6466 40.5266 45.9937 41.1755 46.1344 41.882C46.275 42.5885 46.2028 43.3208 45.9269 43.9862C45.6511 44.6517 45.1839 45.2205 44.5845 45.6207C43.9851 46.0209 43.2805 46.2345 42.5596 46.2345C41.5929 46.2345 40.6658 45.8508 39.9823 45.1678C39.2988 44.4848 38.9148 43.5584 38.9148 42.5925ZM51.2196 61.1317C50.4893 60.7704 49.6586 60.6648 48.861 60.8317C48.0633 60.9987 47.3449 61.4286 46.8211 62.0524C46.7861 62.0946 46.754 62.1383 46.7234 62.1835L43.6224 66.8714C43.3167 67.3708 42.8477 67.7492 42.2948 67.9426C41.7419 68.136 41.1391 68.1324 40.5885 67.9325C40.0379 67.7326 39.5734 67.3486 39.2737 66.8457C38.974 66.3428 38.8575 65.7518 38.9439 65.1728C39.0064 64.7651 39.1664 64.3785 39.4103 64.0458C39.6542 63.713 39.9748 63.444 40.345 63.2615L44.7785 60.5941C44.8432 60.5555 44.9047 60.5116 44.9622 60.463C45.5849 59.9386 46.013 59.2202 46.1777 58.4233C46.3424 57.6264 46.2342 56.7973 45.8705 56.0693C44.9184 54.1493 44.5664 51.9874 44.8602 49.8648L57.1549 62.15C55.1196 62.3877 53.0589 62.0342 51.2196 61.1317ZM64.3716 58.5604C63.2261 59.7076 61.8749 60.6293 60.3885 61.2774C60.3754 61.2628 60.371 61.2439 60.3565 61.2293L46.7292 47.6112C47.4735 47.0026 48.0738 46.237 48.4871 45.3694C48.9005 44.5017 49.1167 43.5535 49.1202 42.5925C49.1202 42.4192 49.0823 42.256 49.0692 42.087C51.2277 40.0907 54.0606 38.9817 57.0018 38.9817C59.943 38.9817 62.7758 40.0907 64.9343 42.087C65.987 43.1448 66.8094 44.4087 67.3496 45.7994C67.8897 47.1901 68.1361 48.6774 68.0732 50.1679C67.959 53.3355 66.6343 56.3389 64.3716 58.5604Z" fill="#303644"/>
<defs>
<linearGradient id="paint0_linear_5_121" x1="23" y1="10" x2="273.752" y2="379.3" gradientUnits="userSpaceOnUse">
<stop stop-color="#2F80ED"/>
<stop offset="1" stop-color="#4D55F0"/>
</linearGradient>
<clipPath id="clip0_5_121">
<rect width="280" height="395" rx="20" fill="white"/>
</clipPath>
</defs>
</svg>
