<svg width="280" height="395" viewBox="0 0 280 395" fill="none" xmlns="http://www.w3.org/2000/svg">
<g clip-path="url(#clip0_5_129)">
<rect width="280" height="395" rx="20" fill="white"/>
<rect x="15" y="15" width="250" height="365" rx="10" stroke="url(#paint0_linear_5_129)" stroke-width="10"/>
<path d="M115.82 158V238H106.133V168.156H105.664L86.1328 181.125V171.281L106.133 158H115.82ZM165.859 239.094C160.703 239.094 156.107 238.208 152.07 236.437C148.06 234.667 144.87 232.206 142.5 229.055C140.156 225.878 138.88 222.193 138.672 218H148.516C148.724 220.578 149.609 222.805 151.172 224.68C152.734 226.529 154.779 227.961 157.305 228.977C159.831 229.992 162.63 230.5 165.703 230.5C169.141 230.5 172.188 229.901 174.844 228.703C177.5 227.505 179.583 225.839 181.094 223.703C182.604 221.568 183.359 219.094 183.359 216.281C183.359 213.339 182.63 210.747 181.172 208.508C179.714 206.242 177.578 204.471 174.766 203.195C171.953 201.919 168.516 201.281 164.453 201.281H158.047V192.687H164.453C167.63 192.687 170.417 192.115 172.813 190.969C175.234 189.823 177.122 188.208 178.477 186.125C179.857 184.042 180.547 181.594 180.547 178.781C180.547 176.073 179.948 173.716 178.75 171.711C177.552 169.706 175.859 168.143 173.672 167.023C171.51 165.904 168.958 165.344 166.016 165.344C163.255 165.344 160.651 165.852 158.203 166.867C155.781 167.857 153.802 169.302 152.266 171.203C150.729 173.078 149.896 175.344 149.766 178H140.391C140.547 173.807 141.81 170.135 144.18 166.984C146.549 163.807 149.648 161.333 153.477 159.562C157.331 157.792 161.563 156.906 166.172 156.906C171.12 156.906 175.365 157.909 178.906 159.914C182.448 161.893 185.169 164.51 187.07 167.766C188.971 171.021 189.922 174.536 189.922 178.313C189.922 182.818 188.737 186.659 186.367 189.836C184.023 193.013 180.833 195.214 176.797 196.438V197.062C181.849 197.896 185.794 200.044 188.633 203.508C191.471 206.945 192.891 211.203 192.891 216.281C192.891 220.63 191.706 224.536 189.336 228C186.992 231.437 183.789 234.146 179.727 236.125C175.664 238.104 171.042 239.094 165.859 239.094Z" fill="#303644"/>
<path d="M47.8864 35.0909V70H43.6591V39.5227H43.4545L34.9318 45.1818V40.8864L43.6591 35.0909H47.8864ZM69.7216 70.4773C67.4716 70.4773 65.4659 70.0909 63.7045 69.3182C61.9545 68.5455 60.5625 67.4716 59.5284 66.0966C58.5057 64.7102 57.9489 63.1023 57.858 61.2727H62.1534C62.2443 62.3977 62.6307 63.3693 63.3125 64.1875C63.9943 64.9943 64.8864 65.6193 65.9886 66.0625C67.0909 66.5057 68.3125 66.7273 69.6534 66.7273C71.1534 66.7273 72.483 66.4659 73.642 65.9432C74.8011 65.4205 75.7102 64.6932 76.3693 63.7614C77.0284 62.8295 77.358 61.75 77.358 60.5227C77.358 59.2386 77.0398 58.108 76.4034 57.1307C75.767 56.142 74.8352 55.3693 73.608 54.8125C72.3807 54.2557 70.8807 53.9773 69.108 53.9773H66.3125V50.2273H69.108C70.4943 50.2273 71.7102 49.9773 72.7557 49.4773C73.8125 48.9773 74.6364 48.2727 75.2273 47.3636C75.8295 46.4545 76.1307 45.3864 76.1307 44.1591C76.1307 42.9773 75.8693 41.9489 75.3466 41.0739C74.8239 40.1989 74.0852 39.517 73.1307 39.0284C72.1875 38.5398 71.0739 38.2955 69.7898 38.2955C68.5852 38.2955 67.4489 38.517 66.3807 38.9602C65.3239 39.392 64.4602 40.0227 63.7898 40.8523C63.1193 41.6705 62.7557 42.6591 62.6989 43.8182H58.608C58.6761 41.9886 59.2273 40.3864 60.2614 39.0114C61.2955 37.625 62.6477 36.5455 64.3182 35.7727C66 35 67.8466 34.6136 69.858 34.6136C72.017 34.6136 73.8693 35.0511 75.4148 35.9261C76.9602 36.7898 78.1477 37.9318 78.9773 39.3523C79.8068 40.7727 80.2216 42.3068 80.2216 43.9545C80.2216 45.9205 79.7045 47.5966 78.6705 48.983C77.6477 50.3693 76.2557 51.3295 74.4943 51.8636V52.1364C76.6989 52.5 78.4205 53.4375 79.6591 54.9489C80.8977 56.4489 81.517 58.3068 81.517 60.5227C81.517 62.4205 81 64.125 79.9659 65.6364C78.9432 67.1364 77.5455 68.3182 75.7727 69.1818C74 70.0455 71.983 70.4773 69.7216 70.4773Z" fill="#303644"/>
<path d="M211.011 324.091V359H206.784V328.523H206.58L198.057 334.182V329.886L206.784 324.091H211.011ZM232.847 359.477C230.597 359.477 228.591 359.091 226.83 358.318C225.08 357.545 223.688 356.472 222.653 355.097C221.631 353.71 221.074 352.102 220.983 350.273H225.278C225.369 351.398 225.756 352.369 226.438 353.188C227.119 353.994 228.011 354.619 229.114 355.062C230.216 355.506 231.438 355.727 232.778 355.727C234.278 355.727 235.608 355.466 236.767 354.943C237.926 354.42 238.835 353.693 239.494 352.761C240.153 351.83 240.483 350.75 240.483 349.523C240.483 348.239 240.165 347.108 239.528 346.131C238.892 345.142 237.96 344.369 236.733 343.812C235.506 343.256 234.006 342.977 232.233 342.977H229.438V339.227H232.233C233.619 339.227 234.835 338.977 235.881 338.477C236.938 337.977 237.761 337.273 238.352 336.364C238.955 335.455 239.256 334.386 239.256 333.159C239.256 331.977 238.994 330.949 238.472 330.074C237.949 329.199 237.21 328.517 236.256 328.028C235.313 327.54 234.199 327.295 232.915 327.295C231.71 327.295 230.574 327.517 229.506 327.96C228.449 328.392 227.585 329.023 226.915 329.852C226.244 330.67 225.881 331.659 225.824 332.818H221.733C221.801 330.989 222.352 329.386 223.386 328.011C224.42 326.625 225.773 325.545 227.443 324.773C229.125 324 230.972 323.614 232.983 323.614C235.142 323.614 236.994 324.051 238.54 324.926C240.085 325.79 241.273 326.932 242.102 328.352C242.932 329.773 243.347 331.307 243.347 332.955C243.347 334.92 242.83 336.597 241.795 337.983C240.773 339.369 239.381 340.33 237.619 340.864V341.136C239.824 341.5 241.545 342.437 242.784 343.949C244.023 345.449 244.642 347.307 244.642 349.523C244.642 351.42 244.125 353.125 243.091 354.636C242.068 356.136 240.67 357.318 238.898 358.182C237.125 359.045 235.108 359.477 232.847 359.477Z" fill="#303644"/>
</g>
<defs>
<linearGradient id="paint0_linear_5_129" x1="23" y1="10" x2="273.752" y2="379.3" gradientUnits="userSpaceOnUse">
<stop stop-color="#4AE396"/>
<stop offset="1" stop-color="#27AE60"/>
</linearGradient>
<clipPath id="clip0_5_129">
<rect width="280" height="395" rx="20" fill="white"/>
</clipPath>
</defs>
</svg>
