<svg width="280" height="395" viewBox="0 0 280 395" fill="none" xmlns="http://www.w3.org/2000/svg">
<g clip-path="url(#clip0_5_133)">
<rect width="280" height="395" rx="20" fill="white"/>
<rect x="15" y="15" width="250" height="365" rx="10" stroke="url(#paint0_linear_5_133)" stroke-width="10"/>
<path d="M115.48 238V230.969L141.887 202.062C144.986 198.677 147.538 195.734 149.543 193.234C151.548 190.708 153.033 188.339 153.996 186.125C154.986 183.885 155.48 181.542 155.48 179.094C155.48 176.281 154.803 173.846 153.449 171.789C152.121 169.732 150.298 168.143 147.98 167.023C145.663 165.904 143.059 165.344 140.168 165.344C137.095 165.344 134.413 165.982 132.121 167.258C129.855 168.508 128.098 170.266 126.848 172.531C125.624 174.797 125.012 177.453 125.012 180.5H115.793C115.793 175.812 116.874 171.698 119.035 168.156C121.197 164.615 124.139 161.854 127.863 159.875C131.613 157.896 135.819 156.906 140.48 156.906C145.168 156.906 149.322 157.896 152.941 159.875C156.561 161.854 159.4 164.523 161.457 167.883C163.514 171.242 164.543 174.979 164.543 179.094C164.543 182.036 164.009 184.914 162.941 187.727C161.9 190.513 160.077 193.625 157.473 197.062C154.895 200.474 151.314 204.641 146.73 209.562L128.762 228.781V229.406H165.949V238H115.48Z" fill="#303644"/>
<path d="M35.6136 70V66.9318L47.1364 54.3182C48.4886 52.8409 49.6023 51.5568 50.4773 50.4659C51.3523 49.3636 52 48.3295 52.4205 47.3636C52.8523 46.3864 53.0682 45.3636 53.0682 44.2955C53.0682 43.0682 52.7727 42.0057 52.1818 41.108C51.6023 40.2102 50.8068 39.517 49.7955 39.0284C48.7841 38.5398 47.6477 38.2955 46.3864 38.2955C45.0455 38.2955 43.875 38.5739 42.875 39.1307C41.8864 39.6761 41.1193 40.4432 40.5739 41.4318C40.0398 42.4205 39.7727 43.5795 39.7727 44.9091H35.75C35.75 42.8636 36.2216 41.0682 37.1648 39.5227C38.108 37.9773 39.392 36.7727 41.017 35.9091C42.6534 35.0455 44.4886 34.6136 46.5227 34.6136C48.5682 34.6136 50.3807 35.0455 51.9602 35.9091C53.5398 36.7727 54.7784 37.9375 55.6761 39.4034C56.5739 40.8693 57.0227 42.5 57.0227 44.2955C57.0227 45.5795 56.7898 46.8352 56.3239 48.0625C55.8693 49.2784 55.0739 50.6364 53.9375 52.1364C52.8125 53.625 51.25 55.4432 49.25 57.5909L41.4091 65.9773V66.25H57.6364V70H35.6136Z" fill="#303644"/>
<path d="M222.551 359V355.932L234.074 343.318C235.426 341.841 236.54 340.557 237.415 339.466C238.29 338.364 238.938 337.33 239.358 336.364C239.79 335.386 240.006 334.364 240.006 333.295C240.006 332.068 239.71 331.006 239.119 330.108C238.54 329.21 237.744 328.517 236.733 328.028C235.722 327.54 234.585 327.295 233.324 327.295C231.983 327.295 230.812 327.574 229.812 328.131C228.824 328.676 228.057 329.443 227.511 330.432C226.977 331.42 226.71 332.58 226.71 333.909H222.688C222.688 331.864 223.159 330.068 224.102 328.523C225.045 326.977 226.33 325.773 227.955 324.909C229.591 324.045 231.426 323.614 233.46 323.614C235.506 323.614 237.318 324.045 238.898 324.909C240.477 325.773 241.716 326.937 242.614 328.403C243.511 329.869 243.96 331.5 243.96 333.295C243.96 334.58 243.727 335.835 243.261 337.062C242.807 338.278 242.011 339.636 240.875 341.136C239.75 342.625 238.188 344.443 236.188 346.591L228.347 354.977V355.25H244.574V359H222.551Z" fill="#303644"/>
</g>
<defs>
<linearGradient id="paint0_linear_5_133" x1="23" y1="10" x2="273.752" y2="379.3" gradientUnits="userSpaceOnUse">
<stop stop-color="#4AE396"/>
<stop offset="1" stop-color="#27AE60"/>
</linearGradient>
<clipPath id="clip0_5_133">
<rect width="280" height="395" rx="20" fill="white"/>
</clipPath>
</defs>
</svg>
