<svg width="280" height="395" viewBox="0 0 280 395" fill="none" xmlns="http://www.w3.org/2000/svg">
<g clip-path="url(#clip0_5_132)">
<rect width="280" height="395" rx="20" fill="white"/>
<rect x="15" y="15" width="250" height="365" rx="10" stroke="url(#paint0_linear_5_132)" stroke-width="10"/>
<path d="M140.015 239.094C134.65 239.094 129.91 238.143 125.796 236.242C121.707 234.315 118.517 231.672 116.226 228.312C113.934 224.927 112.801 221.073 112.827 216.75C112.801 213.365 113.465 210.24 114.819 207.375C116.174 204.484 118.022 202.076 120.366 200.148C122.736 198.195 125.379 196.958 128.296 196.438V195.969C124.468 194.979 121.421 192.831 119.155 189.523C116.89 186.19 115.77 182.401 115.796 178.156C115.77 174.094 116.799 170.461 118.882 167.258C120.965 164.055 123.83 161.529 127.476 159.68C131.147 157.831 135.327 156.906 140.015 156.906C144.65 156.906 148.791 157.831 152.437 159.68C156.082 161.529 158.947 164.055 161.03 167.258C163.14 170.461 164.207 174.094 164.233 178.156C164.207 182.401 163.049 186.19 160.757 189.523C158.491 192.831 155.483 194.979 151.733 195.969V196.438C154.624 196.958 157.228 198.195 159.546 200.148C161.864 202.076 163.713 204.484 165.093 207.375C166.473 210.24 167.176 213.365 167.202 216.75C167.176 221.073 166.004 224.927 163.687 228.312C161.395 231.672 158.205 234.315 154.116 236.242C150.054 238.143 145.353 239.094 140.015 239.094ZM140.015 230.5C143.634 230.5 146.759 229.914 149.39 228.742C152.02 227.57 154.051 225.917 155.483 223.781C156.916 221.646 157.645 219.146 157.671 216.281C157.645 213.26 156.864 210.591 155.327 208.273C153.791 205.956 151.694 204.133 149.038 202.805C146.408 201.477 143.4 200.812 140.015 200.812C136.603 200.812 133.556 201.477 130.874 202.805C128.218 204.133 126.121 205.956 124.585 208.273C123.075 210.591 122.332 213.26 122.358 216.281C122.332 219.146 123.022 221.646 124.429 223.781C125.861 225.917 127.905 227.57 130.562 228.742C133.218 229.914 136.369 230.5 140.015 230.5ZM140.015 192.531C142.879 192.531 145.418 191.958 147.632 190.812C149.871 189.667 151.629 188.065 152.905 186.008C154.181 183.951 154.832 181.542 154.858 178.781C154.832 176.073 154.194 173.716 152.944 171.711C151.694 169.68 149.963 168.117 147.749 167.023C145.535 165.904 142.957 165.344 140.015 165.344C137.02 165.344 134.403 165.904 132.163 167.023C129.924 168.117 128.192 169.68 126.968 171.711C125.744 173.716 125.145 176.073 125.171 178.781C125.145 181.542 125.757 183.951 127.007 186.008C128.283 188.065 130.041 189.667 132.28 190.812C134.52 191.958 137.098 192.531 140.015 192.531Z" fill="#303644"/>
<path d="M46.5227 70.4773C44.5227 70.4773 42.7216 70.0795 41.1193 69.2841C39.517 68.4886 38.233 67.3977 37.267 66.0114C36.3011 64.625 35.7727 63.0455 35.6818 61.2727H39.7727C39.9318 62.8523 40.6477 64.1591 41.9205 65.1932C43.2045 66.2159 44.7386 66.7273 46.5227 66.7273C47.9545 66.7273 49.2273 66.392 50.3409 65.7216C51.4659 65.0511 52.3466 64.1307 52.983 62.9602C53.6307 61.7784 53.9545 60.4432 53.9545 58.9545C53.9545 57.4318 53.6193 56.0739 52.9489 54.8807C52.2898 53.6761 51.3807 52.7273 50.2216 52.0341C49.0625 51.3409 47.7386 50.9886 46.25 50.9773C45.1818 50.9659 44.0852 51.1307 42.9602 51.4716C41.8352 51.8011 40.9091 52.2273 40.1818 52.75L36.2273 52.2727L38.3409 35.0909H56.4773V38.8409H41.8864L40.6591 49.1364H40.8636C41.5795 48.5682 42.4773 48.0966 43.5568 47.7216C44.6364 47.3466 45.7614 47.1591 46.9318 47.1591C49.0682 47.1591 50.9716 47.6705 52.642 48.6932C54.3239 49.7045 55.642 51.0909 56.5966 52.8523C57.5625 54.6136 58.0455 56.625 58.0455 58.8864C58.0455 61.1136 57.5455 63.1023 56.5455 64.8523C55.5568 66.5909 54.1932 67.9659 52.4545 68.9773C50.7159 69.9773 48.7386 70.4773 46.5227 70.4773Z" fill="#303644"/>
<path d="M233.32 359.477C231.32 359.477 229.518 359.08 227.916 358.284C226.314 357.489 225.03 356.398 224.064 355.011C223.098 353.625 222.57 352.045 222.479 350.273H226.57C226.729 351.852 227.445 353.159 228.717 354.193C230.001 355.216 231.536 355.727 233.32 355.727C234.751 355.727 236.024 355.392 237.138 354.722C238.263 354.051 239.143 353.131 239.78 351.96C240.428 350.778 240.751 349.443 240.751 347.955C240.751 346.432 240.416 345.074 239.746 343.881C239.087 342.676 238.178 341.727 237.018 341.034C235.859 340.341 234.536 339.989 233.047 339.977C231.979 339.966 230.882 340.131 229.757 340.472C228.632 340.801 227.706 341.227 226.979 341.75L223.024 341.273L225.138 324.091H243.274V327.841H228.683L227.456 338.136H227.661C228.376 337.568 229.274 337.097 230.354 336.722C231.433 336.347 232.558 336.159 233.729 336.159C235.865 336.159 237.768 336.67 239.439 337.693C241.121 338.705 242.439 340.091 243.393 341.852C244.359 343.614 244.842 345.625 244.842 347.886C244.842 350.114 244.342 352.102 243.342 353.852C242.354 355.591 240.99 356.966 239.251 357.977C237.513 358.977 235.536 359.477 233.32 359.477Z" fill="#303644"/>
</g>
<defs>
<linearGradient id="paint0_linear_5_132" x1="23" y1="10" x2="273.752" y2="379.3" gradientUnits="userSpaceOnUse">
<stop stop-color="#4AE396"/>
<stop offset="1" stop-color="#27AE60"/>
</linearGradient>
<clipPath id="clip0_5_132">
<rect width="280" height="395" rx="20" fill="white"/>
</clipPath>
</defs>
</svg>
