<svg width="280" height="395" viewBox="0 0 280 395" fill="none" xmlns="http://www.w3.org/2000/svg">
<g clip-path="url(#clip0_5_145)">
<rect width="280" height="395" rx="20" fill="white"/>
<rect x="15" y="15" width="250" height="365" rx="10" stroke="url(#paint0_linear_5_145)" stroke-width="10"/>
<path d="M82.5898 158V238H72.9023V168.156H72.4336L52.9023 181.125V171.281L72.9023 158H82.5898ZM143.723 166.281L148.723 170.344L119.348 229.875L114.66 225.344L143.723 166.281ZM131.691 239.094C125.806 239.094 120.793 237.492 116.652 234.289C112.512 231.06 109.348 226.385 107.16 220.266C104.973 214.12 103.879 206.698 103.879 198C103.879 189.354 104.973 181.971 107.16 175.852C109.374 169.706 112.551 165.018 116.691 161.789C120.858 158.534 125.858 156.906 131.691 156.906C137.525 156.906 142.512 158.534 146.652 161.789C150.819 165.018 153.996 169.706 156.184 175.852C158.397 181.971 159.504 189.354 159.504 198C159.504 206.698 158.41 214.12 156.223 220.266C154.035 226.385 150.871 231.06 146.73 234.289C142.59 237.492 137.577 239.094 131.691 239.094ZM131.691 230.5C137.525 230.5 142.056 227.687 145.285 222.062C148.514 216.437 150.129 208.417 150.129 198C150.129 191.073 149.387 185.174 147.902 180.305C146.444 175.435 144.335 171.724 141.574 169.172C138.84 166.62 135.546 165.344 131.691 165.344C125.91 165.344 121.392 168.195 118.137 173.898C114.882 179.576 113.254 187.609 113.254 198C113.254 204.927 113.983 210.812 115.441 215.656C116.9 220.5 118.996 224.185 121.73 226.711C124.491 229.237 127.811 230.5 131.691 230.5ZM212.473 166.281L217.473 170.344L188.098 229.875L183.41 225.344L212.473 166.281ZM200.441 239.094C194.556 239.094 189.543 237.492 185.402 234.289C181.262 231.06 178.098 226.385 175.91 220.266C173.723 214.12 172.629 206.698 172.629 198C172.629 189.354 173.723 181.971 175.91 175.852C178.124 169.706 181.301 165.018 185.441 161.789C189.608 158.534 194.608 156.906 200.441 156.906C206.275 156.906 211.262 158.534 215.402 161.789C219.569 165.018 222.746 169.706 224.934 175.852C227.147 181.971 228.254 189.354 228.254 198C228.254 206.698 227.16 214.12 224.973 220.266C222.785 226.385 219.621 231.06 215.48 234.289C211.34 237.492 206.327 239.094 200.441 239.094ZM200.441 230.5C206.275 230.5 210.806 227.687 214.035 222.062C217.264 216.437 218.879 208.417 218.879 198C218.879 191.073 218.137 185.174 216.652 180.305C215.194 175.435 213.085 171.724 210.324 169.172C207.59 166.62 204.296 165.344 200.441 165.344C194.66 165.344 190.142 168.195 186.887 173.898C183.632 179.576 182.004 187.609 182.004 198C182.004 204.927 182.733 210.812 184.191 215.656C185.65 220.5 187.746 224.185 190.48 226.711C193.241 229.237 196.561 230.5 200.441 230.5Z" fill="#303644"/>
<path d="M47.8864 35.0909V70H43.6591V39.5227H43.4545L34.9318 45.1818V40.8864L43.6591 35.0909H47.8864ZM74.5625 38.7045L76.7443 40.4773L63.9261 66.4545L61.8807 64.4773L74.5625 38.7045ZM69.3125 70.4773C66.7443 70.4773 64.5568 69.7784 62.75 68.3807C60.9432 66.9716 59.5625 64.9318 58.608 62.2614C57.6534 59.5795 57.1761 56.3409 57.1761 52.5455C57.1761 48.7727 57.6534 45.5511 58.608 42.8807C59.5739 40.1989 60.9602 38.1534 62.767 36.7443C64.5852 35.3239 66.767 34.6136 69.3125 34.6136C71.858 34.6136 74.0341 35.3239 75.8409 36.7443C77.6591 38.1534 79.0455 40.1989 80 42.8807C80.9659 45.5511 81.4489 48.7727 81.4489 52.5455C81.4489 56.3409 80.9716 59.5795 80.017 62.2614C79.0625 64.9318 77.6818 66.9716 75.875 68.3807C74.0682 69.7784 71.8807 70.4773 69.3125 70.4773ZM69.3125 66.7273C71.858 66.7273 73.8352 65.5 75.2443 63.0455C76.6534 60.5909 77.358 57.0909 77.358 52.5455C77.358 49.5227 77.0341 46.9489 76.3864 44.8239C75.75 42.6989 74.8295 41.0795 73.625 39.9659C72.4318 38.8523 70.9943 38.2955 69.3125 38.2955C66.7898 38.2955 64.8182 39.5398 63.3977 42.0284C61.9773 44.5057 61.267 48.0114 61.267 52.5455C61.267 55.5682 61.5852 58.1364 62.2216 60.25C62.858 62.3636 63.7727 63.9716 64.9659 65.0739C66.1705 66.1761 67.6193 66.7273 69.3125 66.7273ZM104.562 38.7045L106.744 40.4773L93.9261 66.4545L91.8807 64.4773L104.562 38.7045ZM99.3125 70.4773C96.7443 70.4773 94.5568 69.7784 92.75 68.3807C90.9432 66.9716 89.5625 64.9318 88.608 62.2614C87.6534 59.5795 87.1761 56.3409 87.1761 52.5455C87.1761 48.7727 87.6534 45.5511 88.608 42.8807C89.5739 40.1989 90.9602 38.1534 92.767 36.7443C94.5852 35.3239 96.767 34.6136 99.3125 34.6136C101.858 34.6136 104.034 35.3239 105.841 36.7443C107.659 38.1534 109.045 40.1989 110 42.8807C110.966 45.5511 111.449 48.7727 111.449 52.5455C111.449 56.3409 110.972 59.5795 110.017 62.2614C109.062 64.9318 107.682 66.9716 105.875 68.3807C104.068 69.7784 101.881 70.4773 99.3125 70.4773ZM99.3125 66.7273C101.858 66.7273 103.835 65.5 105.244 63.0455C106.653 60.5909 107.358 57.0909 107.358 52.5455C107.358 49.5227 107.034 46.9489 106.386 44.8239C105.75 42.6989 104.83 41.0795 103.625 39.9659C102.432 38.8523 100.994 38.2955 99.3125 38.2955C96.7898 38.2955 94.8182 39.5398 93.3977 42.0284C91.9773 44.5057 91.267 48.0114 91.267 52.5455C91.267 55.5682 91.5852 58.1364 92.2216 60.25C92.858 62.3636 93.7727 63.9716 94.9659 65.0739C96.1705 66.1761 97.6193 66.7273 99.3125 66.7273Z" fill="#303644"/>
<path d="M181.574 324.091V359H177.347V328.523H177.142L168.619 334.182V329.886L177.347 324.091H181.574ZM208.25 327.705L210.432 329.477L197.614 355.455L195.568 353.477L208.25 327.705ZM203 359.477C200.432 359.477 198.244 358.778 196.438 357.381C194.631 355.972 193.25 353.932 192.295 351.261C191.341 348.58 190.864 345.341 190.864 341.545C190.864 337.773 191.341 334.551 192.295 331.881C193.261 329.199 194.648 327.153 196.455 325.744C198.273 324.324 200.455 323.614 203 323.614C205.545 323.614 207.722 324.324 209.528 325.744C211.347 327.153 212.733 329.199 213.688 331.881C214.653 334.551 215.136 337.773 215.136 341.545C215.136 345.341 214.659 348.58 213.705 351.261C212.75 353.932 211.369 355.972 209.562 357.381C207.756 358.778 205.568 359.477 203 359.477ZM203 355.727C205.545 355.727 207.523 354.5 208.932 352.045C210.341 349.591 211.045 346.091 211.045 341.545C211.045 338.523 210.722 335.949 210.074 333.824C209.438 331.699 208.517 330.08 207.312 328.966C206.119 327.852 204.682 327.295 203 327.295C200.477 327.295 198.506 328.54 197.085 331.028C195.665 333.506 194.955 337.011 194.955 341.545C194.955 344.568 195.273 347.136 195.909 349.25C196.545 351.364 197.46 352.972 198.653 354.074C199.858 355.176 201.307 355.727 203 355.727ZM238.25 327.705L240.432 329.477L227.614 355.455L225.568 353.477L238.25 327.705ZM233 359.477C230.432 359.477 228.244 358.778 226.438 357.381C224.631 355.972 223.25 353.932 222.295 351.261C221.341 348.58 220.864 345.341 220.864 341.545C220.864 337.773 221.341 334.551 222.295 331.881C223.261 329.199 224.648 327.153 226.455 325.744C228.273 324.324 230.455 323.614 233 323.614C235.545 323.614 237.722 324.324 239.528 325.744C241.347 327.153 242.733 329.199 243.688 331.881C244.653 334.551 245.136 337.773 245.136 341.545C245.136 345.341 244.659 348.58 243.705 351.261C242.75 353.932 241.369 355.972 239.562 357.381C237.756 358.778 235.568 359.477 233 359.477ZM233 355.727C235.545 355.727 237.523 354.5 238.932 352.045C240.341 349.591 241.045 346.091 241.045 341.545C241.045 338.523 240.722 335.949 240.074 333.824C239.438 331.699 238.517 330.08 237.312 328.966C236.119 327.852 234.682 327.295 233 327.295C230.477 327.295 228.506 328.54 227.085 331.028C225.665 333.506 224.955 337.011 224.955 341.545C224.955 344.568 225.273 347.136 225.909 349.25C226.545 351.364 227.46 352.972 228.653 354.074C229.858 355.176 231.307 355.727 233 355.727Z" fill="#303644"/>
</g>
<defs>
<linearGradient id="paint0_linear_5_145" x1="23" y1="10" x2="273.752" y2="379.3" gradientUnits="userSpaceOnUse">
<stop stop-color="#F2C94C"/>
<stop offset="1" stop-color="#F5B67A"/>
</linearGradient>
<clipPath id="clip0_5_145">
<rect width="280" height="395" rx="20" fill="white"/>
</clipPath>
</defs>
</svg>
