<svg width="280" height="395" viewBox="0 0 280 395" fill="none" xmlns="http://www.w3.org/2000/svg">
<g clip-path="url(#clip0_5_138)">
<rect width="280" height="395" rx="20" fill="white"/>
<rect x="15" y="15" width="250" height="365" rx="10" stroke="url(#paint0_linear_5_138)" stroke-width="10"/>
<path d="M80.6055 238V230.969L107.012 202.062C110.111 198.677 112.663 195.734 114.668 193.234C116.673 190.708 118.158 188.339 119.121 186.125C120.111 183.885 120.605 181.542 120.605 179.094C120.605 176.281 119.928 173.846 118.574 171.789C117.246 169.732 115.423 168.143 113.105 167.023C110.788 165.904 108.184 165.344 105.293 165.344C102.22 165.344 99.5378 165.982 97.2461 167.258C94.9805 168.508 93.2227 170.266 91.9727 172.531C90.7487 174.797 90.1367 177.453 90.1367 180.5H80.918C80.918 175.812 81.9987 171.698 84.1602 168.156C86.3216 164.615 89.2643 161.854 92.9883 159.875C96.7383 157.896 100.944 156.906 105.605 156.906C110.293 156.906 114.447 157.896 118.066 159.875C121.686 161.854 124.525 164.523 126.582 167.883C128.639 171.242 129.668 174.979 129.668 179.094C129.668 182.036 129.134 184.914 128.066 187.727C127.025 190.513 125.202 193.625 122.598 197.062C120.02 200.474 116.439 204.641 111.855 209.562L93.8867 228.781V229.406H131.074V238H80.6055ZM185.332 166.281L190.332 170.344L160.957 229.875L156.27 225.344L185.332 166.281ZM173.301 239.094C167.415 239.094 162.402 237.492 158.262 234.289C154.121 231.06 150.957 226.385 148.77 220.266C146.582 214.12 145.488 206.698 145.488 198C145.488 189.354 146.582 181.971 148.77 175.852C150.983 169.706 154.16 165.018 158.301 161.789C162.467 158.534 167.467 156.906 173.301 156.906C179.134 156.906 184.121 158.534 188.262 161.789C192.428 165.018 195.605 169.706 197.793 175.852C200.007 181.971 201.113 189.354 201.113 198C201.113 206.698 200.02 214.12 197.832 220.266C195.645 226.385 192.48 231.06 188.34 234.289C184.199 237.492 179.186 239.094 173.301 239.094ZM173.301 230.5C179.134 230.5 183.665 227.687 186.895 222.062C190.124 216.437 191.738 208.417 191.738 198C191.738 191.073 190.996 185.174 189.512 180.305C188.053 175.435 185.944 171.724 183.184 169.172C180.449 166.62 177.155 165.344 173.301 165.344C167.52 165.344 163.001 168.195 159.746 173.898C156.491 179.576 154.863 187.609 154.863 198C154.863 204.927 155.592 210.812 157.051 215.656C158.509 220.5 160.605 224.185 163.34 226.711C166.1 229.237 169.421 230.5 173.301 230.5Z" fill="#303644"/>
<path d="M35.6136 70V66.9318L47.1364 54.3182C48.4886 52.8409 49.6023 51.5568 50.4773 50.4659C51.3523 49.3636 52 48.3295 52.4205 47.3636C52.8523 46.3864 53.0682 45.3636 53.0682 44.2955C53.0682 43.0682 52.7727 42.0057 52.1818 41.108C51.6023 40.2102 50.8068 39.517 49.7955 39.0284C48.7841 38.5398 47.6477 38.2955 46.3864 38.2955C45.0455 38.2955 43.875 38.5739 42.875 39.1307C41.8864 39.6761 41.1193 40.4432 40.5739 41.4318C40.0398 42.4205 39.7727 43.5795 39.7727 44.9091H35.75C35.75 42.8636 36.2216 41.0682 37.1648 39.5227C38.108 37.9773 39.392 36.7727 41.017 35.9091C42.6534 35.0455 44.4886 34.6136 46.5227 34.6136C48.5682 34.6136 50.3807 35.0455 51.9602 35.9091C53.5398 36.7727 54.7784 37.9375 55.6761 39.4034C56.5739 40.8693 57.0227 42.5 57.0227 44.2955C57.0227 45.5795 56.7898 46.8352 56.3239 48.0625C55.8693 49.2784 55.0739 50.6364 53.9375 52.1364C52.8125 53.625 51.25 55.4432 49.25 57.5909L41.4091 65.9773V66.25H57.6364V70H35.6136ZM81.3125 38.7045L83.4943 40.4773L70.6761 66.4545L68.6307 64.4773L81.3125 38.7045ZM76.0625 70.4773C73.4943 70.4773 71.3068 69.7784 69.5 68.3807C67.6932 66.9716 66.3125 64.9318 65.358 62.2614C64.4034 59.5795 63.9261 56.3409 63.9261 52.5455C63.9261 48.7727 64.4034 45.5511 65.358 42.8807C66.3239 40.1989 67.7102 38.1534 69.517 36.7443C71.3352 35.3239 73.517 34.6136 76.0625 34.6136C78.608 34.6136 80.7841 35.3239 82.5909 36.7443C84.4091 38.1534 85.7955 40.1989 86.75 42.8807C87.7159 45.5511 88.1989 48.7727 88.1989 52.5455C88.1989 56.3409 87.7216 59.5795 86.767 62.2614C85.8125 64.9318 84.4318 66.9716 82.625 68.3807C80.8182 69.7784 78.6307 70.4773 76.0625 70.4773ZM76.0625 66.7273C78.608 66.7273 80.5852 65.5 81.9943 63.0455C83.4034 60.5909 84.108 57.0909 84.108 52.5455C84.108 49.5227 83.7841 46.9489 83.1364 44.8239C82.5 42.6989 81.5795 41.0795 80.375 39.9659C79.1818 38.8523 77.7443 38.2955 76.0625 38.2955C73.5398 38.2955 71.5682 39.5398 70.1477 42.0284C68.7273 44.5057 68.017 48.0114 68.017 52.5455C68.017 55.5682 68.3352 58.1364 68.9716 60.25C69.608 62.3636 70.5227 63.9716 71.7159 65.0739C72.9205 66.1761 74.3693 66.7273 76.0625 66.7273Z" fill="#303644"/>
<path d="M192.551 359V355.932L204.074 343.318C205.426 341.841 206.54 340.557 207.415 339.466C208.29 338.364 208.938 337.33 209.358 336.364C209.79 335.386 210.006 334.364 210.006 333.295C210.006 332.068 209.71 331.006 209.119 330.108C208.54 329.21 207.744 328.517 206.733 328.028C205.722 327.54 204.585 327.295 203.324 327.295C201.983 327.295 200.812 327.574 199.812 328.131C198.824 328.676 198.057 329.443 197.511 330.432C196.977 331.42 196.71 332.58 196.71 333.909H192.688C192.688 331.864 193.159 330.068 194.102 328.523C195.045 326.977 196.33 325.773 197.955 324.909C199.591 324.045 201.426 323.614 203.46 323.614C205.506 323.614 207.318 324.045 208.898 324.909C210.477 325.773 211.716 326.937 212.614 328.403C213.511 329.869 213.96 331.5 213.96 333.295C213.96 334.58 213.727 335.835 213.261 337.062C212.807 338.278 212.011 339.636 210.875 341.136C209.75 342.625 208.188 344.443 206.188 346.591L198.347 354.977V355.25H214.574V359H192.551ZM238.25 327.705L240.432 329.477L227.614 355.455L225.568 353.477L238.25 327.705ZM233 359.477C230.432 359.477 228.244 358.778 226.438 357.381C224.631 355.972 223.25 353.932 222.295 351.261C221.341 348.58 220.864 345.341 220.864 341.545C220.864 337.773 221.341 334.551 222.295 331.881C223.261 329.199 224.648 327.153 226.455 325.744C228.273 324.324 230.455 323.614 233 323.614C235.545 323.614 237.722 324.324 239.528 325.744C241.347 327.153 242.733 329.199 243.688 331.881C244.653 334.551 245.136 337.773 245.136 341.545C245.136 345.341 244.659 348.58 243.705 351.261C242.75 353.932 241.369 355.972 239.562 357.381C237.756 358.778 235.568 359.477 233 359.477ZM233 355.727C235.545 355.727 237.523 354.5 238.932 352.045C240.341 349.591 241.045 346.091 241.045 341.545C241.045 338.523 240.722 335.949 240.074 333.824C239.438 331.699 238.517 330.08 237.312 328.966C236.119 327.852 234.682 327.295 233 327.295C230.477 327.295 228.506 328.54 227.085 331.028C225.665 333.506 224.955 337.011 224.955 341.545C224.955 344.568 225.273 347.136 225.909 349.25C226.545 351.364 227.46 352.972 228.653 354.074C229.858 355.176 231.307 355.727 233 355.727Z" fill="#303644"/>
</g>
<defs>
<linearGradient id="paint0_linear_5_138" x1="23" y1="10" x2="273.752" y2="379.3" gradientUnits="userSpaceOnUse">
<stop stop-color="#F2C94C"/>
<stop offset="1" stop-color="#F5B67A"/>
</linearGradient>
<clipPath id="clip0_5_138">
<rect width="280" height="395" rx="20" fill="white"/>
</clipPath>
</defs>
</svg>
