<svg width="280" height="395" viewBox="0 0 280 395" fill="none" xmlns="http://www.w3.org/2000/svg">
<g clip-path="url(#clip0_5_141)">
<rect width="280" height="395" rx="20" fill="white"/>
<rect x="15" y="15" width="250" height="365" rx="10" stroke="url(#paint0_linear_5_141)" stroke-width="10"/>
<path d="M140.793 239.094C135.637 239.094 131.04 238.208 127.004 236.437C122.993 234.667 119.803 232.206 117.434 229.055C115.09 225.878 113.814 222.193 113.605 218H123.449C123.658 220.578 124.543 222.805 126.105 224.68C127.668 226.529 129.712 227.961 132.238 228.977C134.764 229.992 137.564 230.5 140.637 230.5C144.074 230.5 147.121 229.901 149.777 228.703C152.434 227.505 154.517 225.839 156.027 223.703C157.538 221.568 158.293 219.094 158.293 216.281C158.293 213.339 157.564 210.747 156.105 208.508C154.647 206.242 152.512 204.471 149.699 203.195C146.887 201.919 143.449 201.281 139.387 201.281H132.98V192.687H139.387C142.564 192.687 145.35 192.115 147.746 190.969C150.168 189.823 152.056 188.208 153.41 186.125C154.79 184.042 155.48 181.594 155.48 178.781C155.48 176.073 154.882 173.716 153.684 171.711C152.486 169.706 150.793 168.143 148.605 167.023C146.444 165.904 143.892 165.344 140.949 165.344C138.189 165.344 135.585 165.852 133.137 166.867C130.715 167.857 128.736 169.302 127.199 171.203C125.663 173.078 124.829 175.344 124.699 178H115.324C115.48 173.807 116.743 170.135 119.113 166.984C121.483 163.807 124.582 161.333 128.41 159.562C132.264 157.792 136.496 156.906 141.105 156.906C146.053 156.906 150.298 157.909 153.84 159.914C157.382 161.893 160.103 164.51 162.004 167.766C163.905 171.021 164.855 174.536 164.855 178.313C164.855 182.818 163.671 186.659 161.301 189.836C158.957 193.013 155.767 195.214 151.73 196.438V197.062C156.783 197.896 160.728 200.044 163.566 203.508C166.405 206.945 167.824 211.203 167.824 216.281C167.824 220.63 166.639 224.536 164.27 228C161.926 231.437 158.723 234.146 154.66 236.125C150.598 238.104 145.975 239.094 140.793 239.094Z" fill="#303644"/>
<path d="M47.4091 70.4773C45.1591 70.4773 43.1534 70.0909 41.392 69.3182C39.642 68.5455 38.25 67.4716 37.2159 66.0966C36.1932 64.7102 35.6364 63.1023 35.5455 61.2727H39.8409C39.9318 62.3977 40.3182 63.3693 41 64.1875C41.6818 64.9943 42.5739 65.6193 43.6761 66.0625C44.7784 66.5057 46 66.7273 47.3409 66.7273C48.8409 66.7273 50.1705 66.4659 51.3295 65.9432C52.4886 65.4205 53.3977 64.6932 54.0568 63.7614C54.7159 62.8295 55.0455 61.75 55.0455 60.5227C55.0455 59.2386 54.7273 58.108 54.0909 57.1307C53.4545 56.142 52.5227 55.3693 51.2955 54.8125C50.0682 54.2557 48.5682 53.9773 46.7955 53.9773H44V50.2273H46.7955C48.1818 50.2273 49.3977 49.9773 50.4432 49.4773C51.5 48.9773 52.3239 48.2727 52.9148 47.3636C53.517 46.4545 53.8182 45.3864 53.8182 44.1591C53.8182 42.9773 53.5568 41.9489 53.0341 41.0739C52.5114 40.1989 51.7727 39.517 50.8182 39.0284C49.875 38.5398 48.7614 38.2955 47.4773 38.2955C46.2727 38.2955 45.1364 38.517 44.0682 38.9602C43.0114 39.392 42.1477 40.0227 41.4773 40.8523C40.8068 41.6705 40.4432 42.6591 40.3864 43.8182H36.2955C36.3636 41.9886 36.9148 40.3864 37.9489 39.0114C38.983 37.625 40.3352 36.5455 42.0057 35.7727C43.6875 35 45.5341 34.6136 47.5455 34.6136C49.7045 34.6136 51.5568 35.0511 53.1023 35.9261C54.6477 36.7898 55.8352 37.9318 56.6648 39.3523C57.4943 40.7727 57.9091 42.3068 57.9091 43.9545C57.9091 45.9205 57.392 47.5966 56.358 48.983C55.3352 50.3693 53.9432 51.3295 52.1818 51.8636V52.1364C54.3864 52.5 56.108 53.4375 57.3466 54.9489C58.5852 56.4489 59.2045 58.3068 59.2045 60.5227C59.2045 62.4205 58.6875 64.125 57.6534 65.6364C56.6307 67.1364 55.233 68.3182 53.4602 69.1818C51.6875 70.0455 49.6705 70.4773 47.4091 70.4773Z" fill="#303644"/>
<path d="M232.847 359.477C230.597 359.477 228.591 359.091 226.83 358.318C225.08 357.545 223.688 356.472 222.653 355.097C221.631 353.71 221.074 352.102 220.983 350.273H225.278C225.369 351.398 225.756 352.369 226.438 353.188C227.119 353.994 228.011 354.619 229.114 355.062C230.216 355.506 231.438 355.727 232.778 355.727C234.278 355.727 235.608 355.466 236.767 354.943C237.926 354.42 238.835 353.693 239.494 352.761C240.153 351.83 240.483 350.75 240.483 349.523C240.483 348.239 240.165 347.108 239.528 346.131C238.892 345.142 237.96 344.369 236.733 343.812C235.506 343.256 234.006 342.977 232.233 342.977H229.438V339.227H232.233C233.619 339.227 234.835 338.977 235.881 338.477C236.938 337.977 237.761 337.273 238.352 336.364C238.955 335.455 239.256 334.386 239.256 333.159C239.256 331.977 238.994 330.949 238.472 330.074C237.949 329.199 237.21 328.517 236.256 328.028C235.313 327.54 234.199 327.295 232.915 327.295C231.71 327.295 230.574 327.517 229.506 327.96C228.449 328.392 227.585 329.023 226.915 329.852C226.244 330.67 225.881 331.659 225.824 332.818H221.733C221.801 330.989 222.352 329.386 223.386 328.011C224.42 326.625 225.773 325.545 227.443 324.773C229.125 324 230.972 323.614 232.983 323.614C235.142 323.614 236.994 324.051 238.54 324.926C240.085 325.79 241.273 326.932 242.102 328.352C242.932 329.773 243.347 331.307 243.347 332.955C243.347 334.92 242.83 336.597 241.795 337.983C240.773 339.369 239.381 340.33 237.619 340.864V341.136C239.824 341.5 241.545 342.437 242.784 343.949C244.023 345.449 244.642 347.307 244.642 349.523C244.642 351.42 244.125 353.125 243.091 354.636C242.068 356.136 240.67 357.318 238.898 358.182C237.125 359.045 235.108 359.477 232.847 359.477Z" fill="#303644"/>
</g>
<defs>
<linearGradient id="paint0_linear_5_141" x1="23" y1="10" x2="273.752" y2="379.3" gradientUnits="userSpaceOnUse">
<stop stop-color="#F2C94C"/>
<stop offset="1" stop-color="#F5B67A"/>
</linearGradient>
<clipPath id="clip0_5_141">
<rect width="280" height="395" rx="20" fill="white"/>
</clipPath>
</defs>
</svg>
