<svg width="280" height="395" viewBox="0 0 280 395" fill="none" xmlns="http://www.w3.org/2000/svg">
<g clip-path="url(#clip0_5_140)">
<rect width="280" height="395" rx="20" fill="white"/>
<rect x="15" y="15" width="250" height="365" rx="10" stroke="url(#paint0_linear_5_140)" stroke-width="10"/>
<path d="M140.319 239.094C135.736 239.094 131.608 238.182 127.937 236.359C124.265 234.536 121.322 232.036 119.108 228.859C116.895 225.682 115.684 222.062 115.476 218H124.851C125.215 221.62 126.856 224.615 129.772 226.984C132.715 229.328 136.231 230.5 140.319 230.5C143.601 230.5 146.517 229.732 149.069 228.195C151.647 226.659 153.666 224.549 155.124 221.867C156.608 219.159 157.351 216.099 157.351 212.687C157.351 209.198 156.582 206.086 155.046 203.352C153.535 200.591 151.452 198.417 148.796 196.828C146.14 195.24 143.106 194.432 139.694 194.406C137.246 194.38 134.733 194.758 132.155 195.539C129.577 196.294 127.455 197.271 125.788 198.469L116.726 197.375L121.569 158H163.132V166.594H129.694L126.882 190.187H127.351C128.991 188.885 131.049 187.805 133.522 186.945C135.996 186.086 138.575 185.656 141.257 185.656C146.153 185.656 150.515 186.828 154.343 189.172C158.197 191.49 161.218 194.667 163.405 198.703C165.619 202.74 166.726 207.349 166.726 212.531C166.726 217.635 165.58 222.193 163.288 226.203C161.022 230.187 157.897 233.339 153.913 235.656C149.929 237.948 145.397 239.094 140.319 239.094Z" fill="#303644"/>
<path d="M46.5227 70.4773C44.5227 70.4773 42.7216 70.0795 41.1193 69.2841C39.517 68.4886 38.233 67.3977 37.267 66.0114C36.3011 64.625 35.7727 63.0455 35.6818 61.2727H39.7727C39.9318 62.8523 40.6477 64.1591 41.9205 65.1932C43.2045 66.2159 44.7386 66.7273 46.5227 66.7273C47.9545 66.7273 49.2273 66.392 50.3409 65.7216C51.4659 65.0511 52.3466 64.1307 52.983 62.9602C53.6307 61.7784 53.9545 60.4432 53.9545 58.9545C53.9545 57.4318 53.6193 56.0739 52.9489 54.8807C52.2898 53.6761 51.3807 52.7273 50.2216 52.0341C49.0625 51.3409 47.7386 50.9886 46.25 50.9773C45.1818 50.9659 44.0852 51.1307 42.9602 51.4716C41.8352 51.8011 40.9091 52.2273 40.1818 52.75L36.2273 52.2727L38.3409 35.0909H56.4773V38.8409H41.8864L40.6591 49.1364H40.8636C41.5795 48.5682 42.4773 48.0966 43.5568 47.7216C44.6364 47.3466 45.7614 47.1591 46.9318 47.1591C49.0682 47.1591 50.9716 47.6705 52.642 48.6932C54.3239 49.7045 55.642 51.0909 56.5966 52.8523C57.5625 54.6136 58.0455 56.625 58.0455 58.8864C58.0455 61.1136 57.5455 63.1023 56.5455 64.8523C55.5568 66.5909 54.1932 67.9659 52.4545 68.9773C50.7159 69.9773 48.7386 70.4773 46.5227 70.4773Z" fill="#303644"/>
<path d="M233.32 359.477C231.32 359.477 229.518 359.08 227.916 358.284C226.314 357.489 225.03 356.398 224.064 355.011C223.098 353.625 222.57 352.045 222.479 350.273H226.57C226.729 351.852 227.445 353.159 228.717 354.193C230.001 355.216 231.536 355.727 233.32 355.727C234.751 355.727 236.024 355.392 237.138 354.722C238.263 354.051 239.143 353.131 239.78 351.96C240.428 350.778 240.751 349.443 240.751 347.955C240.751 346.432 240.416 345.074 239.746 343.881C239.087 342.676 238.178 341.727 237.018 341.034C235.859 340.341 234.536 339.989 233.047 339.977C231.979 339.966 230.882 340.131 229.757 340.472C228.632 340.801 227.706 341.227 226.979 341.75L223.024 341.273L225.138 324.091H243.274V327.841H228.683L227.456 338.136H227.661C228.376 337.568 229.274 337.097 230.354 336.722C231.433 336.347 232.558 336.159 233.729 336.159C235.865 336.159 237.768 336.67 239.439 337.693C241.121 338.705 242.439 340.091 243.393 341.852C244.359 343.614 244.842 345.625 244.842 347.886C244.842 350.114 244.342 352.102 243.342 353.852C242.354 355.591 240.99 356.966 239.251 357.977C237.513 358.977 235.536 359.477 233.32 359.477Z" fill="#303644"/>
</g>
<defs>
<linearGradient id="paint0_linear_5_140" x1="23" y1="10" x2="273.752" y2="379.3" gradientUnits="userSpaceOnUse">
<stop stop-color="#F2C94C"/>
<stop offset="1" stop-color="#F5B67A"/>
</linearGradient>
<clipPath id="clip0_5_140">
<rect width="280" height="395" rx="20" fill="white"/>
</clipPath>
</defs>
</svg>
