<svg width="280" height="395" viewBox="0 0 280 395" fill="none" xmlns="http://www.w3.org/2000/svg">
<g clip-path="url(#clip0_5_125)">
<rect width="280" height="395" rx="20" fill="white"/>
<rect x="15" y="15" width="250" height="365" rx="10" stroke="url(#paint0_linear_5_125)" stroke-width="10"/>
<path d="M131.073 219.364V218.767C131.139 212.437 131.802 207.399 133.061 203.653C134.321 199.908 136.111 196.875 138.431 194.555C140.751 192.235 143.535 190.098 146.783 188.142C148.738 186.949 150.495 185.54 152.053 183.916C153.61 182.259 154.837 180.353 155.732 178.199C156.66 176.045 157.124 173.658 157.124 171.04C157.124 167.792 156.361 164.974 154.837 162.588C153.312 160.202 151.274 158.362 148.722 157.07C146.17 155.777 143.336 155.131 140.22 155.131C137.503 155.131 134.884 155.694 132.365 156.821C129.846 157.948 127.742 159.721 126.051 162.141C124.361 164.56 123.383 167.725 123.118 171.636H110.59C110.855 166.002 112.313 161.179 114.965 157.169C117.649 153.159 121.179 150.093 125.554 147.972C129.962 145.85 134.851 144.79 140.22 144.79C146.054 144.79 151.125 145.95 155.433 148.27C159.775 150.59 163.123 153.772 165.476 157.815C167.862 161.859 169.056 166.466 169.056 171.636C169.056 175.282 168.492 178.58 167.365 181.53C166.271 184.48 164.681 187.115 162.593 189.435C160.538 191.755 158.052 193.81 155.135 195.599C152.218 197.422 149.882 199.345 148.125 201.366C146.369 203.355 145.093 205.725 144.297 208.476C143.502 211.227 143.071 214.657 143.004 218.767V219.364H131.073ZM137.436 248.795C134.984 248.795 132.879 247.917 131.122 246.161C129.366 244.404 128.487 242.299 128.487 239.847C128.487 237.394 129.366 235.289 131.122 233.533C132.879 231.776 134.984 230.898 137.436 230.898C139.889 230.898 141.994 231.776 143.75 233.533C145.507 235.289 146.385 237.394 146.385 239.847C146.385 241.471 145.971 242.962 145.142 244.321C144.347 245.68 143.27 246.774 141.911 247.602C140.585 248.398 139.093 248.795 137.436 248.795Z" fill="#303644"/>
<path d="M40.9318 60.1818V59.9773C40.9545 57.8068 41.1818 56.0795 41.6136 54.7955C42.0455 53.5114 42.6591 52.4716 43.4545 51.6761C44.25 50.8807 45.2045 50.1477 46.3182 49.4773C46.9886 49.0682 47.5909 48.5852 48.125 48.0284C48.6591 47.4602 49.0795 46.8068 49.3864 46.0682C49.7045 45.3295 49.8636 44.5114 49.8636 43.6136C49.8636 42.5 49.6023 41.5341 49.0795 40.7159C48.5568 39.8977 47.858 39.267 46.983 38.8239C46.108 38.3807 45.1364 38.1591 44.0682 38.1591C43.1364 38.1591 42.2386 38.3523 41.375 38.7386C40.5114 39.125 39.7898 39.733 39.2102 40.5625C38.6307 41.392 38.2955 42.4773 38.2045 43.8182H33.9091C34 41.8864 34.5 40.233 35.4091 38.858C36.3295 37.483 37.5398 36.4318 39.0398 35.7045C40.5511 34.9773 42.2273 34.6136 44.0682 34.6136C46.0682 34.6136 47.8068 35.0114 49.2841 35.8068C50.7727 36.6023 51.9205 37.6932 52.7273 39.0795C53.5455 40.4659 53.9545 42.0455 53.9545 43.8182C53.9545 45.0682 53.7614 46.1989 53.375 47.2102C53 48.2216 52.4545 49.125 51.7386 49.9205C51.0341 50.7159 50.1818 51.4205 49.1818 52.0341C48.1818 52.6591 47.3807 53.3182 46.7784 54.0114C46.1761 54.6932 45.7386 55.5057 45.4659 56.4489C45.1932 57.392 45.0455 58.5682 45.0227 59.9773V60.1818H40.9318ZM43.1136 70.2727C42.2727 70.2727 41.5511 69.9716 40.9489 69.3693C40.3466 68.767 40.0455 68.0455 40.0455 67.2045C40.0455 66.3636 40.3466 65.642 40.9489 65.0398C41.5511 64.4375 42.2727 64.1364 43.1136 64.1364C43.9545 64.1364 44.6761 64.4375 45.2784 65.0398C45.8807 65.642 46.1818 66.3636 46.1818 67.2045C46.1818 67.7614 46.0398 68.2727 45.7557 68.7386C45.483 69.2045 45.1136 69.5795 44.6477 69.8636C44.1932 70.1364 43.6818 70.2727 43.1136 70.2727Z" fill="#303644"/>
<path d="M232.604 349.182V348.977C232.626 346.807 232.854 345.08 233.286 343.795C233.717 342.511 234.331 341.472 235.126 340.676C235.922 339.881 236.876 339.148 237.99 338.477C238.661 338.068 239.263 337.585 239.797 337.028C240.331 336.46 240.751 335.807 241.058 335.068C241.376 334.33 241.536 333.511 241.536 332.614C241.536 331.5 241.274 330.534 240.751 329.716C240.229 328.898 239.53 328.267 238.655 327.824C237.78 327.381 236.808 327.159 235.74 327.159C234.808 327.159 233.911 327.352 233.047 327.739C232.183 328.125 231.462 328.733 230.882 329.562C230.303 330.392 229.967 331.477 229.876 332.818H225.581C225.672 330.886 226.172 329.233 227.081 327.858C228.001 326.483 229.212 325.432 230.712 324.705C232.223 323.977 233.899 323.614 235.74 323.614C237.74 323.614 239.479 324.011 240.956 324.807C242.445 325.602 243.592 326.693 244.399 328.08C245.217 329.466 245.626 331.045 245.626 332.818C245.626 334.068 245.433 335.199 245.047 336.21C244.672 337.222 244.126 338.125 243.411 338.92C242.706 339.716 241.854 340.42 240.854 341.034C239.854 341.659 239.053 342.318 238.45 343.011C237.848 343.693 237.411 344.506 237.138 345.449C236.865 346.392 236.717 347.568 236.695 348.977V349.182H232.604ZM234.786 359.273C233.945 359.273 233.223 358.972 232.621 358.369C232.018 357.767 231.717 357.045 231.717 356.205C231.717 355.364 232.018 354.642 232.621 354.04C233.223 353.437 233.945 353.136 234.786 353.136C235.626 353.136 236.348 353.437 236.95 354.04C237.553 354.642 237.854 355.364 237.854 356.205C237.854 356.761 237.712 357.273 237.428 357.739C237.155 358.205 236.786 358.58 236.32 358.864C235.865 359.136 235.354 359.273 234.786 359.273Z" fill="#303644"/>
</g>
<defs>
<linearGradient id="paint0_linear_5_125" x1="23" y1="10" x2="273.752" y2="379.3" gradientUnits="userSpaceOnUse">
<stop stop-color="#F2C94C"/>
<stop offset="1" stop-color="#F5B67A"/>
</linearGradient>
<clipPath id="clip0_5_125">
<rect width="280" height="395" rx="20" fill="white"/>
</clipPath>
</defs>
</svg>
